<svg width="26" height="26" viewBox="0 0 26 26" fill="none" xmlns="http://www.w3.org/2000/svg">
<g clip-path="url(#clip0_382_8076)">
<path d="M8.125 18.2569L8.0275 18.3585L9.84344 20.1785L19.0125 10.9932C19.6522 10.2757 19.9929 9.34064 19.9649 8.37986C19.9368 7.41908 19.542 6.50549 18.8616 5.8266C18.1811 5.14772 17.2666 4.75505 16.3058 4.72919C15.345 4.70332 14.4107 5.04624 13.6947 5.68754L8.20625 11.1638L3.52625 15.8438C2.94798 16.3903 2.48518 17.0473 2.16521 17.7758C1.84525 18.5043 1.67461 19.2896 1.6634 20.0852C1.65219 20.8808 1.80062 21.6706 2.09993 22.4079C2.39924 23.1451 2.84334 23.8149 3.40598 24.3775C3.96862 24.9401 4.63836 25.3842 5.37561 25.6835C6.11285 25.9829 6.90263 26.1313 7.69824 26.1201C8.49385 26.1089 9.27913 25.9382 10.0077 25.6183C10.7362 25.2983 11.3931 24.8355 11.9397 24.2572L16.7781 19.4188L22.5469 13.6541C23.3291 12.9197 23.9558 12.0355 24.3896 11.0541C24.8234 10.0727 25.0556 9.01418 25.0723 7.94132C25.089 6.86846 24.8899 5.80318 24.4869 4.80878C24.0838 3.81437 23.485 2.91111 22.726 2.15267C21.967 1.39422 21.0633 0.796057 20.0686 0.393708C19.0739 -0.0086412 18.0085 -0.206967 16.9357 -0.189489C15.8628 -0.172011 14.8044 0.0609148 13.8234 0.495452C12.8423 0.929989 11.9586 1.55727 11.2247 2.34004L1.21875 12.346L1.11719 12.4475L2.93719 14.2675L13.0447 4.16004C13.5417 3.62499 14.1414 3.19564 14.8082 2.89768C15.4749 2.59972 16.1948 2.43927 16.9249 2.4259C17.6551 2.41254 18.3804 2.54654 19.0576 2.8199C19.7347 3.09326 20.3498 3.50037 20.8661 4.01688C21.3823 4.53338 21.7891 5.14868 22.0621 5.82599C22.3351 6.5033 22.4687 7.2287 22.4549 7.95883C22.4412 8.68896 22.2804 9.40882 21.982 10.0754C21.6837 10.7419 21.2541 11.3415 20.7188 11.8382L15.7625 16.8066L10.1238 22.4372C9.4802 23.0615 8.61523 23.4048 7.71875 23.3919C6.8282 23.3988 5.97051 23.056 5.33 22.4372C4.6969 21.8035 4.34129 20.9443 4.34129 20.0485C4.34129 19.1527 4.6969 18.2935 5.33 17.6597L8.55563 14.4341L15.5147 7.49535C15.7411 7.28047 16.0414 7.16068 16.3536 7.16068C16.6658 7.16068 16.966 7.28047 17.1925 7.49535C17.3027 7.60551 17.3901 7.73629 17.4497 7.88023C17.5094 8.02417 17.54 8.17845 17.54 8.33426C17.54 8.49006 17.5094 8.64434 17.4497 8.78828C17.3901 8.93222 17.3027 9.06301 17.1925 9.17316L8.125 18.2569Z" fill="white"/>
</g>
<defs>
<clipPath id="clip0_382_8076">
<rect width="26" height="26" fill="white"/>
</clipPath>
</defs>
</svg>
