<svg width="58" height="58" viewBox="0 0 58 58" fill="none" xmlns="http://www.w3.org/2000/svg">
<g clip-path="url(#clip0_5022_728)">
<path d="M28.5871 0C20.8292 0 19.8537 0.0357338 16.8056 0.171522C13.7575 0.314458 11.6814 0.793291 9.86254 1.50082C7.95468 2.21842 6.22659 3.34407 4.79905 4.79905C3.34496 6.22732 2.21945 7.95521 1.50082 9.86254C0.793291 11.6778 0.310884 13.7575 0.171522 16.7949C0.0357338 19.8501 0 20.8221 0 28.5906C0 36.352 0.0357338 37.324 0.171522 40.3721C0.314458 43.4166 0.793291 45.4927 1.50082 47.3116C2.23336 49.1912 3.2089 50.7849 4.79905 52.3751C6.38563 53.9652 7.97936 54.9443 9.85896 55.6733C11.6814 56.3808 13.7539 56.8632 16.7985 57.0026C19.8501 57.1384 20.8221 57.1741 28.5871 57.1741C36.352 57.1741 37.3204 57.1384 40.3721 57.0026C43.413 56.8597 45.4963 56.3808 47.3152 55.6733C49.2218 54.9553 50.9486 53.8297 52.3751 52.3751C53.9652 50.7849 54.9408 49.1912 55.6733 47.3116C56.3773 45.4927 56.8597 43.4166 57.0026 40.3721C57.1384 37.324 57.1741 36.352 57.1741 28.5871C57.1741 20.8221 57.1384 19.8501 57.0026 16.7985C56.8597 13.7575 56.3773 11.6778 55.6733 9.86254C54.9548 7.95515 53.8292 6.22725 52.3751 4.79905C50.948 3.34353 49.2197 2.2178 47.3116 1.50082C45.4892 0.793291 43.4095 0.310884 40.3685 0.171522C37.3168 0.0357338 36.3484 0 28.5799 0H28.5906H28.5871ZM26.0249 5.15282H28.5906C36.2234 5.15282 37.1274 5.17783 40.1398 5.31719C42.927 5.44226 44.4422 5.91037 45.4498 6.29987C46.7827 6.81801 47.7368 7.43978 48.7374 8.44033C49.7379 9.44088 50.3561 10.3914 50.8742 11.7278C51.2673 12.732 51.7319 14.2471 51.8569 17.0343C51.9963 20.0467 52.0249 20.9507 52.0249 28.5799C52.0249 36.2091 51.9963 37.1167 51.8569 40.1291C51.7319 42.9163 51.2637 44.4279 50.8742 45.4356C50.4159 46.6768 49.6844 47.7991 48.7338 48.7195C47.7332 49.72 46.7827 50.3382 45.4463 50.8564C44.4457 51.2495 42.9306 51.714 40.1398 51.8426C37.1274 51.9784 36.2234 52.0106 28.5906 52.0106C20.9579 52.0106 20.0502 51.9784 17.0379 51.8426C14.2506 51.714 12.7391 51.2495 11.7314 50.8564C10.4897 50.3987 9.36629 49.6685 8.4439 48.7195C7.49249 47.7977 6.75985 46.6743 6.29987 45.432C5.91037 44.4279 5.44226 42.9128 5.31719 40.1255C5.1814 37.1132 5.15282 36.2091 5.15282 28.5728C5.15282 20.94 5.1814 20.0395 5.31719 17.0272C5.44583 14.2399 5.91037 12.7248 6.30345 11.7171C6.82159 10.3842 7.44336 9.43016 8.4439 8.42961C9.44445 7.42906 10.395 6.81087 11.7314 6.29273C12.7391 5.89965 14.2506 5.43511 17.0379 5.30647C19.675 5.18498 20.697 5.14924 26.0249 5.14567V5.15282ZM43.849 9.89827C43.3985 9.89827 42.9524 9.987 42.5362 10.1594C42.12 10.3318 41.7418 10.5845 41.4233 10.903C41.1047 11.2216 40.8521 11.5997 40.6797 12.0159C40.5073 12.4321 40.4185 12.8782 40.4185 13.3287C40.4185 13.7792 40.5073 14.2253 40.6797 14.6415C40.8521 15.0577 41.1047 15.4359 41.4233 15.7544C41.7418 16.073 42.12 16.3256 42.5362 16.498C42.9524 16.6704 43.3985 16.7592 43.849 16.7592C44.7588 16.7592 45.6313 16.3977 46.2747 15.7544C46.918 15.1111 47.2794 14.2385 47.2794 13.3287C47.2794 12.4189 46.918 11.5464 46.2747 10.903C45.6313 10.2597 44.7588 9.89827 43.849 9.89827ZM28.5906 13.9076C26.6434 13.8772 24.7096 14.2345 22.9017 14.9587C21.0939 15.6828 19.4482 16.7594 18.0604 18.1257C16.6726 19.492 15.5705 21.1207 14.8182 22.917C14.066 24.7133 13.6786 26.6414 13.6786 28.5888C13.6786 30.5363 14.066 32.4643 14.8182 34.2607C15.5705 36.057 16.6726 37.6857 18.0604 39.052C19.4482 40.4183 21.0939 41.4948 22.9017 42.219C24.7096 42.9432 26.6434 43.3005 28.5906 43.2701C32.4447 43.21 36.1205 41.6367 38.8247 38.89C41.5289 36.1433 43.0446 32.4434 43.0446 28.5888C43.0446 24.7343 41.5289 21.0344 38.8247 18.2877C36.1205 15.5409 32.4447 13.9677 28.5906 13.9076ZM28.5906 19.0568C31.1182 19.0568 33.5422 20.0609 35.3295 21.8482C37.1168 23.6354 38.1208 26.0595 38.1208 28.5871C38.1208 31.1146 37.1168 33.5387 35.3295 35.3259C33.5422 37.1132 31.1182 38.1173 28.5906 38.1173C26.0631 38.1173 23.639 37.1132 21.8518 35.3259C20.0645 33.5387 19.0604 31.1146 19.0604 28.5871C19.0604 26.0595 20.0645 23.6354 21.8518 21.8482C23.639 20.0609 26.0631 19.0568 28.5906 19.0568Z" fill="white"/>
</g>
<defs>
<clipPath id="clip0_5022_728">
<rect width="57.1741" height="57.1741" fill="white"/>
</clipPath>
</defs>
</svg>
