<svg width="25" height="33" viewBox="0 0 25 33" fill="none" xmlns="http://www.w3.org/2000/svg">
<path d="M12.1618 29.3006C11.7886 29.3006 11.4775 29.0207 11.4775 28.6163V24.5416C11.4775 24.1683 11.7575 23.8573 12.1618 23.8573C12.5351 23.8573 12.8461 24.1372 12.8461 24.5416V28.6163C12.8461 28.9896 12.5351 29.3006 12.1618 29.3006Z" fill="white"/>
<path d="M23.6397 32.3799H0.684545C0.31129 32.3799 0.000244141 32.0999 0.000244141 31.6956V14.8369C0.000244141 14.4636 0.280186 14.1526 0.684545 14.1526H23.5775C23.9508 14.1526 24.2618 14.4325 24.2618 14.8369V31.6645C24.2929 32.0377 24.013 32.3799 23.6397 32.3799ZM1.39995 31.0424H22.9554V15.4901H1.39995V31.0424Z" fill="white"/>
<path d="M19.5961 15.4902H4.75925C4.386 15.4902 4.07495 15.2103 4.07495 14.8059V8.08731C4.07495 3.60825 7.71419 0.00012207 12.1621 0.00012207C16.6101 0.00012207 20.2493 3.63936 20.2493 8.08731V14.837C20.2493 15.2103 19.9383 15.4902 19.5961 15.4902ZM5.41245 14.1527H18.9118V8.08731C18.9118 4.38587 15.8636 1.33762 12.1621 1.33762C8.4607 1.33762 5.41245 4.38587 5.41245 8.08731V14.1527Z" fill="white"/>
<path d="M12.1619 24.9152C10.3267 24.9152 8.77148 23.3911 8.77148 21.5248C8.77148 19.6896 10.2956 18.1344 12.1619 18.1344C13.9971 18.1344 15.5523 19.6585 15.5523 21.5248C15.5523 23.3911 13.9971 24.9152 12.1619 24.9152ZM12.1619 19.5652C11.0421 19.5652 10.1401 20.4361 10.1401 21.587C10.1401 22.7068 11.011 23.6088 12.1619 23.6088C13.3128 23.6088 14.1837 22.7379 14.1837 21.587C14.1837 20.4361 13.2817 19.5652 12.1619 19.5652Z" fill="white"/>
</svg>
