<svg width="30" height="20" viewBox="0 0 30 20" fill="none" xmlns="http://www.w3.org/2000/svg">
<path d="M27.4924 0H1.6409C0.719695 0 0 0.719694 0 1.6409V17.8196C0 18.7409 0.719695 19.4606 1.6409 19.4606H27.5499C28.4711 19.4606 29.1908 18.7409 29.1908 17.8196V1.6409C29.162 0.719694 28.4136 0 27.4924 0ZM1.20909 2.04393L9.03937 9.52876L1.20909 17.359V2.04393ZM16.5242 11.2848C15.4591 12.2924 13.703 12.2924 12.6378 11.2848L2.10151 1.20909H27.0605L16.5242 11.2848ZM9.903 10.3348L11.7454 12.1197C13.3 13.6166 15.7757 13.6166 17.3303 12.1197L19.1727 10.3348L27.0605 18.2227H2.10151L9.903 10.3348ZM20.1227 9.52876L27.953 2.04393V17.359L20.1227 9.52876Z" fill="white"/>
</svg>
