<svg width="22" height="32" viewBox="0 0 22 32" fill="none" xmlns="http://www.w3.org/2000/svg">
<path d="M7.08618 0.935791C9.74138 -0.262437 12.8715 -0.0872701 15.3655 1.44067C17.7994 2.93253 19.4043 5.54773 19.6711 8.41528C19.9498 11.4086 18.7193 14.3425 16.4836 16.2542C16.6246 16.3436 16.7643 16.4354 16.9016 16.5315H16.9036L16.9426 16.5588C19.7282 18.532 21.4424 21.647 21.4475 25.1194C21.4489 26.0013 21.4547 26.8859 21.4475 27.7698C21.4347 29.4445 20.3184 30.9742 18.6731 31.3528C18.4041 31.4148 18.1298 31.4384 17.8586 31.4465H3.78735C2.17813 31.4204 0.726364 30.3287 0.318604 28.7249C0.209833 28.2967 0.176425 27.8409 0.16626 27.3918C0.161175 27.1671 0.161681 26.9417 0.162354 26.7219C0.163029 26.5013 0.162977 26.2857 0.157471 26.0774C0.127835 24.9762 0.175323 23.8881 0.431885 22.7991C1.06689 20.102 2.75839 17.7507 5.03931 16.2581C2.53397 14.1246 1.3045 10.7546 1.95142 7.44849C2.50805 4.60319 4.47629 2.11438 7.08618 0.935791ZM14.0247 1.88599C11.6784 0.791615 8.86532 0.973683 6.65845 2.32544C4.52415 3.63257 3.05537 5.95492 2.82739 8.48169C2.56681 11.3712 3.86644 14.213 6.20435 15.8762L6.2561 15.9172C6.36924 16.0197 6.43539 16.1651 6.44165 16.3108C6.44895 16.4824 6.3719 16.6591 6.19067 16.76C4.8963 17.4821 3.76231 18.4834 2.91235 19.7102C2.15004 20.8103 1.61667 22.056 1.34888 23.3733C1.16326 24.2864 1.15287 25.1965 1.17798 26.137L1.18091 26.7122C1.17942 26.907 1.17727 27.1025 1.17993 27.2971C1.18528 27.6868 1.20979 28.0653 1.29224 28.4114C1.57236 29.588 2.60907 30.3967 3.79224 30.4163H17.1487C17.66 30.4163 18.1344 30.4456 18.5901 30.3098C19.2771 30.1048 19.8525 29.6018 20.1702 28.9485C20.3911 28.4943 20.427 28.0124 20.427 27.4866C20.427 26.5577 20.4522 25.6381 20.4221 24.718C20.3133 21.4006 18.3734 18.5672 15.5989 16.9163L15.3284 16.76C15.1466 16.6593 15.0699 16.4824 15.0774 16.3108C15.0847 16.1444 15.1701 15.9788 15.3137 15.8762C17.9135 14.0264 19.1919 10.6756 18.511 7.52368C17.975 5.04523 16.2927 2.94417 14.0247 1.88599Z" fill="white" stroke="white" stroke-width="0.3"/>
<path d="M15.3801 19.3752C15.5097 19.3344 15.6521 19.3559 15.7825 19.4475C16.4777 19.936 17.1191 20.5118 17.594 21.2454L17.7434 21.4778H17.7307C18.1298 22.1814 18.3351 22.9621 18.4065 23.762C18.4206 23.9207 18.3698 24.0559 18.2708 24.1487C18.1755 24.2379 18.0484 24.276 17.928 24.2756C17.6889 24.2749 17.4173 24.1154 17.3879 23.7893C17.2554 22.3035 16.4466 21.1677 15.2463 20.3235C14.9781 20.135 14.9805 19.8175 15.0989 19.6106C15.1589 19.5059 15.2558 19.4145 15.3801 19.3752Z" fill="white" stroke="white" stroke-width="0.3"/>
</svg>
