<svg width="23" height="37" viewBox="0 0 23 37" fill="none" xmlns="http://www.w3.org/2000/svg">
<mask id="path-1-outside-1_15_90" maskUnits="userSpaceOnUse" x="-0.899902" y="-0.900024" width="24" height="38" fill="black">
<rect fill="white" x="-0.899902" y="-0.900024" width="24" height="38"/>
<path d="M21.8386 29.4171C21.7025 28.7024 21.5842 27.9755 21.4244 27.267C21.2351 26.4168 20.957 25.5851 20.6375 24.778C20.3062 23.9402 19.6317 23.3549 18.833 23.0161C18.0461 22.6834 17.1646 22.6403 16.3481 22.8928C15.8748 23.0407 15.4251 23.1947 14.9341 23.2748C14.8986 23.281 14.8276 23.2933 14.7329 23.2995C14.6383 23.3118 14.5377 23.3179 14.4371 23.3179H14.1886C14.1472 23.3118 14.0999 23.3118 14.0525 23.3056C14.0407 23.3056 14.0111 23.3056 13.9934 23.3056C13.8336 23.281 13.6739 23.2379 13.5201 23.1824C13.5082 23.1762 13.4786 23.1639 13.4668 23.1578H13.455C13.4254 23.1393 13.3958 23.1208 13.3662 23.1085C13.2952 23.0715 13.2242 23.0284 13.1532 22.9791C13.1414 22.9668 13.0941 22.936 13.0763 22.9237H13.0704C13.0704 22.9237 13.0231 22.8805 13.0112 22.8682C12.9402 22.8066 12.8752 22.745 12.816 22.6772C12.6622 22.5047 12.5971 22.4185 12.4788 22.2275C11.9936 21.4636 11.6919 20.6257 11.4197 19.757C11.1061 18.7651 10.8577 17.7548 10.6151 16.7444C10.5204 16.344 10.4258 15.9435 10.3607 15.5369C10.3548 15.4938 10.3548 15.4753 10.3548 15.4753C10.3548 15.463 10.3548 15.4445 10.3548 15.4322C10.3488 15.3767 10.3429 15.3274 10.337 15.2782C10.337 15.1611 10.3252 15.0441 10.3252 14.927C10.3252 14.8346 10.3311 14.736 10.337 14.6374C10.3429 14.6374 10.3429 14.6313 10.3429 14.6251C10.3429 14.6066 10.3429 14.5882 10.3429 14.5697C10.3548 14.5142 10.3725 14.4526 10.3903 14.3972C10.3962 14.3787 10.4139 14.3171 10.4198 14.3048C10.4317 14.2863 10.4494 14.237 10.4613 14.2247C10.4849 14.1877 10.5027 14.1446 10.5323 14.1138C10.5441 14.0953 10.5737 14.0645 10.5796 14.0522C10.6092 14.0275 10.6387 13.9967 10.6683 13.9721L10.6861 13.9536C10.6861 13.9536 10.692 13.9536 10.7038 13.9413H10.7097C10.7097 13.9413 10.7157 13.929 10.7216 13.929C10.7926 13.8797 10.8636 13.8304 10.9405 13.7934C10.9819 13.7688 11.0174 13.7503 11.0529 13.7318C11.0647 13.7318 11.1121 13.7072 11.1121 13.7072H11.1239C11.2126 13.664 11.2955 13.6332 11.3842 13.6024C11.5735 13.5347 11.7629 13.4731 11.9522 13.4115C12.3131 13.2882 12.6977 13.1527 13.0172 12.9186C13.2893 12.7276 13.5082 12.4873 13.6975 12.204C14.0703 11.6556 14.2182 10.978 14.2951 10.3188C14.372 9.60412 14.3306 8.88331 14.2419 8.17482C14.0644 6.75785 13.7212 5.37784 13.2893 4.02248C13.1 3.42489 12.8988 2.83962 12.5498 2.31595C12.1238 1.66291 11.5617 1.10228 10.8991 0.707997C10.1595 0.270584 9.31347 0.067279 8.4615 0.104244H8.44375C7.26638 0.165851 6.08901 0.202815 4.92347 0.412281C3.7816 0.621746 2.65156 1.04068 1.77593 1.8539C0.734635 2.83345 0.284986 4.25043 0.154825 5.66124C0.0719946 6.58535 0.101577 7.52794 0.125243 8.45822C0.154825 9.47474 0.213989 10.4913 0.314568 11.5016C0.409231 12.4627 0.533477 13.4299 0.734635 14.3725C0.95946 15.4199 1.19612 16.461 1.45644 17.496C1.94159 19.449 2.50365 21.3773 3.14854 23.2748C3.82893 25.2586 4.60398 27.1992 5.4382 29.1152C5.84052 30.0332 6.231 30.9449 6.79306 31.7705C7.31371 32.5283 7.91719 33.2244 8.61533 33.8097C9.99977 34.9802 11.6268 35.7195 13.3899 35.9721C15.1175 36.2247 16.9693 36.1323 18.5964 35.43C19.3832 35.0911 20.1465 34.6167 20.7973 34.05C21.4244 33.5017 21.9214 32.7439 22.0575 31.8999C22.1876 31.0805 21.9924 30.218 21.8386 29.4171ZM21.2292 31.6226V31.6658C21.2292 31.6658 21.2292 31.6781 21.2232 31.6842V31.7027C21.2232 31.7027 21.2114 31.7397 21.2114 31.7458C21.1996 31.8136 21.1818 31.8814 21.1641 31.943C21.1049 32.1586 21.0694 32.2572 20.9807 32.442C20.9393 32.5221 20.8919 32.6022 20.8446 32.6761C20.815 32.7192 20.7854 32.7624 20.7558 32.8055C20.744 32.8178 20.7381 32.8363 20.7322 32.8486C20.7322 32.8486 20.7263 32.8486 20.7204 32.8609C20.7144 32.8609 20.7085 32.8733 20.7026 32.8794C20.5843 33.0273 20.46 33.1628 20.3239 33.2922C20.0459 33.5509 19.7501 33.7604 19.401 33.9822C19.0637 34.1978 18.7147 34.4073 18.3538 34.5736C18.336 34.5798 18.2887 34.5983 18.2828 34.6044C18.2414 34.6229 18.194 34.6352 18.1526 34.6537C18.058 34.6907 17.9633 34.7276 17.8627 34.7584C17.6675 34.8262 17.4663 34.8878 17.2652 34.9371C16.8628 35.0418 16.4724 35.1096 16.0937 35.1466C15.6677 35.1897 15.2358 35.2082 14.8098 35.202C14.5909 35.202 14.372 35.1835 14.1531 35.1651C13.9756 35.1527 13.7153 35.1219 13.591 35.1035C13.171 35.0418 12.7509 34.9556 12.3368 34.8385C12.1474 34.7893 11.9581 34.7276 11.7688 34.6599C11.6741 34.6291 11.5795 34.5921 11.4848 34.5551C11.4434 34.5367 11.402 34.5182 11.3606 34.4997C11.3369 34.4935 11.3132 34.4812 11.2955 34.4751C11.2955 34.4751 11.2896 34.4751 11.2777 34.4751H11.2718C9.71578 33.7727 8.37275 32.6083 7.43204 31.1729C6.89956 30.3535 6.52091 29.454 6.13042 28.5546C5.72219 27.6181 5.3317 26.6817 4.96489 25.7268C4.25491 23.9094 3.62186 22.055 3.07163 20.176C2.49773 18.223 2.0185 16.2454 1.5866 14.2493C1.1902 12.3888 1.04821 10.4913 0.989042 8.57527C0.95946 7.66964 0.935794 6.74553 1.00087 5.8399C1.01271 5.74133 1.01862 5.64276 1.03046 5.55034C1.03046 5.50106 1.04229 5.45177 1.04821 5.40249V5.37784C1.04821 5.37784 1.05412 5.33472 1.06004 5.31624C1.0837 5.12525 1.1192 4.93427 1.16654 4.74945C1.20795 4.57695 1.24937 4.40445 1.30853 4.23194C1.3322 4.15802 1.35586 4.08409 1.38544 4.01016C1.39136 3.98551 1.40319 3.95471 1.41503 3.93007C1.41503 3.93007 1.43869 3.87462 1.44461 3.84998C1.56885 3.57274 1.71085 3.30783 1.88242 3.0614C1.88242 3.0614 1.91792 3.01828 1.92975 2.99979C1.94159 2.98131 1.95934 2.95667 1.96525 2.95051C2.01259 2.89506 2.054 2.84578 2.10133 2.79033C2.19599 2.6856 2.29066 2.58702 2.39715 2.48845C2.44448 2.44533 2.49182 2.4022 2.53915 2.36524C2.5569 2.34676 2.58056 2.32827 2.58056 2.32827C2.59831 2.31595 2.61606 2.30363 2.63381 2.28515C2.74622 2.20506 2.85864 2.12497 2.97105 2.0572C3.08346 1.98943 3.19587 1.92166 3.3142 1.86622C3.37336 1.83541 3.43845 1.80461 3.49761 1.77381C3.49761 1.77381 3.50944 1.77381 3.51536 1.76765C3.55086 1.74916 3.56861 1.743 3.59227 1.73068C3.59227 1.73068 3.60411 1.73068 3.61594 1.72452C4.12475 1.51505 4.66315 1.37952 5.20154 1.28095C5.27254 1.26862 5.34354 1.2563 5.41453 1.24398C5.44412 1.23782 5.47962 1.23782 5.51511 1.23166C5.53286 1.23166 5.55653 1.2255 5.57428 1.21934C5.71036 1.20702 5.84643 1.18854 5.9766 1.17005C6.26058 1.13925 6.54457 1.12077 6.82856 1.09612C7.36104 1.05916 7.89352 1.04068 8.426 1.00987H8.44375C9.23655 0.972909 9.95244 1.15157 10.6092 1.57666C11.1594 1.92782 11.6327 2.44533 11.964 3.01828C12.0409 3.15381 12.1119 3.28935 12.177 3.43721C12.1889 3.46801 12.2007 3.49882 12.2184 3.53578V3.5481C12.2184 3.5481 12.2244 3.56042 12.2303 3.57274C12.2599 3.64051 12.2776 3.70212 12.3013 3.76989C12.3841 4.01632 12.461 4.26275 12.5379 4.51534C12.7332 5.1499 12.9107 5.79061 13.0586 6.43749C13.1414 6.78865 13.2183 7.14598 13.2775 7.5033C13.3071 7.68196 13.3366 7.86062 13.3603 8.03313C13.3721 8.07009 13.3721 8.10089 13.3781 8.13786C13.3781 8.11938 13.3899 8.21795 13.3899 8.23643C13.4017 8.32884 13.4136 8.42125 13.4195 8.51366C13.455 8.86483 13.4727 9.22215 13.4727 9.57331C13.4727 9.74581 13.4668 9.91831 13.455 10.0908C13.4491 10.1647 13.4431 10.2448 13.4313 10.3188V10.3496C13.4254 10.3927 13.4195 10.4358 13.4076 10.4789C13.384 10.6391 13.3544 10.7931 13.313 10.941C13.2952 11.0088 13.2775 11.0765 13.2538 11.1443C13.242 11.1751 13.2301 11.2059 13.2183 11.2429C13.2124 11.249 13.2065 11.2798 13.2006 11.2983C13.2006 11.2983 13.1986 11.3024 13.1946 11.3106L13.1887 11.3291C13.1769 11.3538 13.1651 11.3784 13.1591 11.3846C13.1473 11.4154 13.1355 11.4462 13.1177 11.4708C13.0882 11.5386 13.0527 11.6002 13.0172 11.6556C12.9876 11.7049 12.958 11.7481 12.9225 11.7973C12.9225 11.7973 12.9225 11.8097 12.9166 11.8097C12.9166 11.8158 12.9107 11.8158 12.9107 11.822L12.8988 11.8343C12.8692 11.8713 12.8456 11.8959 12.816 11.9267C12.7746 11.976 12.7332 12.0191 12.6858 12.0623C12.6681 12.0746 12.6563 12.0869 12.6385 12.1054L12.603 12.1362C12.603 12.1362 12.5912 12.1423 12.5793 12.1485C12.5143 12.1978 12.4433 12.2409 12.3723 12.2779C12.3308 12.3025 12.2894 12.3272 12.2421 12.3456C12.2421 12.3518 12.1948 12.3703 12.1711 12.3826C11.828 12.5243 11.467 12.6229 11.118 12.7523C10.3548 13.0295 9.65662 13.4854 9.50871 14.3787C9.3608 15.2535 9.58562 16.1407 9.78678 16.9847C10.0234 17.9643 10.2601 18.95 10.5618 19.911C10.8399 20.7982 11.1594 21.6915 11.6209 22.4924C12.0291 23.1947 12.5853 23.7923 13.3426 24.0634C14.0703 24.3221 14.8808 24.2236 15.6145 24.0634C16.0878 23.9525 16.5374 23.7369 17.0107 23.6568C17.0107 23.6568 17.0758 23.6445 17.0936 23.6445C17.1409 23.6383 17.1942 23.6321 17.2474 23.6321C17.3421 23.626 17.4367 23.626 17.5314 23.6321C17.6142 23.6321 17.6911 23.6383 17.774 23.6506C17.774 23.6506 17.845 23.6506 17.8568 23.6629C17.916 23.6753 17.9751 23.6876 18.0343 23.6999C18.2118 23.743 18.3893 23.7985 18.5668 23.8724C18.5786 23.8786 18.5845 23.8786 18.5845 23.8786C18.5964 23.8847 18.6141 23.8909 18.6259 23.897C18.6673 23.9155 18.7028 23.934 18.7443 23.9587C18.8389 24.0079 18.9277 24.0572 19.0105 24.1188C19.1821 24.2297 19.2353 24.2729 19.3832 24.4207C19.543 24.5809 19.5903 24.6425 19.6968 24.815C19.7382 24.8889 19.7796 24.969 19.8151 25.0491V25.0614C19.8151 25.0614 19.8151 25.0676 19.827 25.0738V25.0861L19.8506 25.1292L19.9394 25.3695C20.0222 25.5913 20.105 25.8192 20.182 26.0472C20.3062 26.4168 20.4245 26.7926 20.5192 27.1746C20.6908 27.8584 20.7973 28.5607 20.9274 29.2569C21.0043 29.645 21.0813 30.0332 21.1404 30.4213C21.1759 30.6431 21.1877 30.7293 21.2114 30.9511C21.2292 31.1359 21.241 31.3269 21.2351 31.5117C21.2351 31.5487 21.2351 31.5857 21.2292 31.6288V31.6226Z"/>
</mask>
<path d="M21.8386 29.4171C21.7025 28.7024 21.5842 27.9755 21.4244 27.267C21.2351 26.4168 20.957 25.5851 20.6375 24.778C20.3062 23.9402 19.6317 23.3549 18.833 23.0161C18.0461 22.6834 17.1646 22.6403 16.3481 22.8928C15.8748 23.0407 15.4251 23.1947 14.9341 23.2748C14.8986 23.281 14.8276 23.2933 14.7329 23.2995C14.6383 23.3118 14.5377 23.3179 14.4371 23.3179H14.1886C14.1472 23.3118 14.0999 23.3118 14.0525 23.3056C14.0407 23.3056 14.0111 23.3056 13.9934 23.3056C13.8336 23.281 13.6739 23.2379 13.5201 23.1824C13.5082 23.1762 13.4786 23.1639 13.4668 23.1578H13.455C13.4254 23.1393 13.3958 23.1208 13.3662 23.1085C13.2952 23.0715 13.2242 23.0284 13.1532 22.9791C13.1414 22.9668 13.0941 22.936 13.0763 22.9237H13.0704C13.0704 22.9237 13.0231 22.8805 13.0112 22.8682C12.9402 22.8066 12.8752 22.745 12.816 22.6772C12.6622 22.5047 12.5971 22.4185 12.4788 22.2275C11.9936 21.4636 11.6919 20.6257 11.4197 19.757C11.1061 18.7651 10.8577 17.7548 10.6151 16.7444C10.5204 16.344 10.4258 15.9435 10.3607 15.5369C10.3548 15.4938 10.3548 15.4753 10.3548 15.4753C10.3548 15.463 10.3548 15.4445 10.3548 15.4322C10.3488 15.3767 10.3429 15.3274 10.337 15.2782C10.337 15.1611 10.3252 15.0441 10.3252 14.927C10.3252 14.8346 10.3311 14.736 10.337 14.6374C10.3429 14.6374 10.3429 14.6313 10.3429 14.6251C10.3429 14.6066 10.3429 14.5882 10.3429 14.5697C10.3548 14.5142 10.3725 14.4526 10.3903 14.3972C10.3962 14.3787 10.4139 14.3171 10.4198 14.3048C10.4317 14.2863 10.4494 14.237 10.4613 14.2247C10.4849 14.1877 10.5027 14.1446 10.5323 14.1138C10.5441 14.0953 10.5737 14.0645 10.5796 14.0522C10.6092 14.0275 10.6387 13.9967 10.6683 13.9721L10.6861 13.9536C10.6861 13.9536 10.692 13.9536 10.7038 13.9413H10.7097C10.7097 13.9413 10.7157 13.929 10.7216 13.929C10.7926 13.8797 10.8636 13.8304 10.9405 13.7934C10.9819 13.7688 11.0174 13.7503 11.0529 13.7318C11.0647 13.7318 11.1121 13.7072 11.1121 13.7072H11.1239C11.2126 13.664 11.2955 13.6332 11.3842 13.6024C11.5735 13.5347 11.7629 13.4731 11.9522 13.4115C12.3131 13.2882 12.6977 13.1527 13.0172 12.9186C13.2893 12.7276 13.5082 12.4873 13.6975 12.204C14.0703 11.6556 14.2182 10.978 14.2951 10.3188C14.372 9.60412 14.3306 8.88331 14.2419 8.17482C14.0644 6.75785 13.7212 5.37784 13.2893 4.02248C13.1 3.42489 12.8988 2.83962 12.5498 2.31595C12.1238 1.66291 11.5617 1.10228 10.8991 0.707997C10.1595 0.270584 9.31347 0.067279 8.4615 0.104244H8.44375C7.26638 0.165851 6.08901 0.202815 4.92347 0.412281C3.7816 0.621746 2.65156 1.04068 1.77593 1.8539C0.734635 2.83345 0.284986 4.25043 0.154825 5.66124C0.0719946 6.58535 0.101577 7.52794 0.125243 8.45822C0.154825 9.47474 0.213989 10.4913 0.314568 11.5016C0.409231 12.4627 0.533477 13.4299 0.734635 14.3725C0.95946 15.4199 1.19612 16.461 1.45644 17.496C1.94159 19.449 2.50365 21.3773 3.14854 23.2748C3.82893 25.2586 4.60398 27.1992 5.4382 29.1152C5.84052 30.0332 6.231 30.9449 6.79306 31.7705C7.31371 32.5283 7.91719 33.2244 8.61533 33.8097C9.99977 34.9802 11.6268 35.7195 13.3899 35.9721C15.1175 36.2247 16.9693 36.1323 18.5964 35.43C19.3832 35.0911 20.1465 34.6167 20.7973 34.05C21.4244 33.5017 21.9214 32.7439 22.0575 31.8999C22.1876 31.0805 21.9924 30.218 21.8386 29.4171ZM21.2292 31.6226V31.6658C21.2292 31.6658 21.2292 31.6781 21.2232 31.6842V31.7027C21.2232 31.7027 21.2114 31.7397 21.2114 31.7458C21.1996 31.8136 21.1818 31.8814 21.1641 31.943C21.1049 32.1586 21.0694 32.2572 20.9807 32.442C20.9393 32.5221 20.8919 32.6022 20.8446 32.6761C20.815 32.7192 20.7854 32.7624 20.7558 32.8055C20.744 32.8178 20.7381 32.8363 20.7322 32.8486C20.7322 32.8486 20.7263 32.8486 20.7204 32.8609C20.7144 32.8609 20.7085 32.8733 20.7026 32.8794C20.5843 33.0273 20.46 33.1628 20.3239 33.2922C20.0459 33.5509 19.7501 33.7604 19.401 33.9822C19.0637 34.1978 18.7147 34.4073 18.3538 34.5736C18.336 34.5798 18.2887 34.5983 18.2828 34.6044C18.2414 34.6229 18.194 34.6352 18.1526 34.6537C18.058 34.6907 17.9633 34.7276 17.8627 34.7584C17.6675 34.8262 17.4663 34.8878 17.2652 34.9371C16.8628 35.0418 16.4724 35.1096 16.0937 35.1466C15.6677 35.1897 15.2358 35.2082 14.8098 35.202C14.5909 35.202 14.372 35.1835 14.1531 35.1651C13.9756 35.1527 13.7153 35.1219 13.591 35.1035C13.171 35.0418 12.7509 34.9556 12.3368 34.8385C12.1474 34.7893 11.9581 34.7276 11.7688 34.6599C11.6741 34.6291 11.5795 34.5921 11.4848 34.5551C11.4434 34.5367 11.402 34.5182 11.3606 34.4997C11.3369 34.4935 11.3132 34.4812 11.2955 34.4751C11.2955 34.4751 11.2896 34.4751 11.2777 34.4751H11.2718C9.71578 33.7727 8.37275 32.6083 7.43204 31.1729C6.89956 30.3535 6.52091 29.454 6.13042 28.5546C5.72219 27.6181 5.3317 26.6817 4.96489 25.7268C4.25491 23.9094 3.62186 22.055 3.07163 20.176C2.49773 18.223 2.0185 16.2454 1.5866 14.2493C1.1902 12.3888 1.04821 10.4913 0.989042 8.57527C0.95946 7.66964 0.935794 6.74553 1.00087 5.8399C1.01271 5.74133 1.01862 5.64276 1.03046 5.55034C1.03046 5.50106 1.04229 5.45177 1.04821 5.40249V5.37784C1.04821 5.37784 1.05412 5.33472 1.06004 5.31624C1.0837 5.12525 1.1192 4.93427 1.16654 4.74945C1.20795 4.57695 1.24937 4.40445 1.30853 4.23194C1.3322 4.15802 1.35586 4.08409 1.38544 4.01016C1.39136 3.98551 1.40319 3.95471 1.41503 3.93007C1.41503 3.93007 1.43869 3.87462 1.44461 3.84998C1.56885 3.57274 1.71085 3.30783 1.88242 3.0614C1.88242 3.0614 1.91792 3.01828 1.92975 2.99979C1.94159 2.98131 1.95934 2.95667 1.96525 2.95051C2.01259 2.89506 2.054 2.84578 2.10133 2.79033C2.19599 2.6856 2.29066 2.58702 2.39715 2.48845C2.44448 2.44533 2.49182 2.4022 2.53915 2.36524C2.5569 2.34676 2.58056 2.32827 2.58056 2.32827C2.59831 2.31595 2.61606 2.30363 2.63381 2.28515C2.74622 2.20506 2.85864 2.12497 2.97105 2.0572C3.08346 1.98943 3.19587 1.92166 3.3142 1.86622C3.37336 1.83541 3.43845 1.80461 3.49761 1.77381C3.49761 1.77381 3.50944 1.77381 3.51536 1.76765C3.55086 1.74916 3.56861 1.743 3.59227 1.73068C3.59227 1.73068 3.60411 1.73068 3.61594 1.72452C4.12475 1.51505 4.66315 1.37952 5.20154 1.28095C5.27254 1.26862 5.34354 1.2563 5.41453 1.24398C5.44412 1.23782 5.47962 1.23782 5.51511 1.23166C5.53286 1.23166 5.55653 1.2255 5.57428 1.21934C5.71036 1.20702 5.84643 1.18854 5.9766 1.17005C6.26058 1.13925 6.54457 1.12077 6.82856 1.09612C7.36104 1.05916 7.89352 1.04068 8.426 1.00987H8.44375C9.23655 0.972909 9.95244 1.15157 10.6092 1.57666C11.1594 1.92782 11.6327 2.44533 11.964 3.01828C12.0409 3.15381 12.1119 3.28935 12.177 3.43721C12.1889 3.46801 12.2007 3.49882 12.2184 3.53578V3.5481C12.2184 3.5481 12.2244 3.56042 12.2303 3.57274C12.2599 3.64051 12.2776 3.70212 12.3013 3.76989C12.3841 4.01632 12.461 4.26275 12.5379 4.51534C12.7332 5.1499 12.9107 5.79061 13.0586 6.43749C13.1414 6.78865 13.2183 7.14598 13.2775 7.5033C13.3071 7.68196 13.3366 7.86062 13.3603 8.03313C13.3721 8.07009 13.3721 8.10089 13.3781 8.13786C13.3781 8.11938 13.3899 8.21795 13.3899 8.23643C13.4017 8.32884 13.4136 8.42125 13.4195 8.51366C13.455 8.86483 13.4727 9.22215 13.4727 9.57331C13.4727 9.74581 13.4668 9.91831 13.455 10.0908C13.4491 10.1647 13.4431 10.2448 13.4313 10.3188V10.3496C13.4254 10.3927 13.4195 10.4358 13.4076 10.4789C13.384 10.6391 13.3544 10.7931 13.313 10.941C13.2952 11.0088 13.2775 11.0765 13.2538 11.1443C13.242 11.1751 13.2301 11.2059 13.2183 11.2429C13.2124 11.249 13.2065 11.2798 13.2006 11.2983C13.2006 11.2983 13.1986 11.3024 13.1946 11.3106L13.1887 11.3291C13.1769 11.3538 13.1651 11.3784 13.1591 11.3846C13.1473 11.4154 13.1355 11.4462 13.1177 11.4708C13.0882 11.5386 13.0527 11.6002 13.0172 11.6556C12.9876 11.7049 12.958 11.7481 12.9225 11.7973C12.9225 11.7973 12.9225 11.8097 12.9166 11.8097C12.9166 11.8158 12.9107 11.8158 12.9107 11.822L12.8988 11.8343C12.8692 11.8713 12.8456 11.8959 12.816 11.9267C12.7746 11.976 12.7332 12.0191 12.6858 12.0623C12.6681 12.0746 12.6563 12.0869 12.6385 12.1054L12.603 12.1362C12.603 12.1362 12.5912 12.1423 12.5793 12.1485C12.5143 12.1978 12.4433 12.2409 12.3723 12.2779C12.3308 12.3025 12.2894 12.3272 12.2421 12.3456C12.2421 12.3518 12.1948 12.3703 12.1711 12.3826C11.828 12.5243 11.467 12.6229 11.118 12.7523C10.3548 13.0295 9.65662 13.4854 9.50871 14.3787C9.3608 15.2535 9.58562 16.1407 9.78678 16.9847C10.0234 17.9643 10.2601 18.95 10.5618 19.911C10.8399 20.7982 11.1594 21.6915 11.6209 22.4924C12.0291 23.1947 12.5853 23.7923 13.3426 24.0634C14.0703 24.3221 14.8808 24.2236 15.6145 24.0634C16.0878 23.9525 16.5374 23.7369 17.0107 23.6568C17.0107 23.6568 17.0758 23.6445 17.0936 23.6445C17.1409 23.6383 17.1942 23.6321 17.2474 23.6321C17.3421 23.626 17.4367 23.626 17.5314 23.6321C17.6142 23.6321 17.6911 23.6383 17.774 23.6506C17.774 23.6506 17.845 23.6506 17.8568 23.6629C17.916 23.6753 17.9751 23.6876 18.0343 23.6999C18.2118 23.743 18.3893 23.7985 18.5668 23.8724C18.5786 23.8786 18.5845 23.8786 18.5845 23.8786C18.5964 23.8847 18.6141 23.8909 18.6259 23.897C18.6673 23.9155 18.7028 23.934 18.7443 23.9587C18.8389 24.0079 18.9277 24.0572 19.0105 24.1188C19.1821 24.2297 19.2353 24.2729 19.3832 24.4207C19.543 24.5809 19.5903 24.6425 19.6968 24.815C19.7382 24.8889 19.7796 24.969 19.8151 25.0491V25.0614C19.8151 25.0614 19.8151 25.0676 19.827 25.0738V25.0861L19.8506 25.1292L19.9394 25.3695C20.0222 25.5913 20.105 25.8192 20.182 26.0472C20.3062 26.4168 20.4245 26.7926 20.5192 27.1746C20.6908 27.8584 20.7973 28.5607 20.9274 29.2569C21.0043 29.645 21.0813 30.0332 21.1404 30.4213C21.1759 30.6431 21.1877 30.7293 21.2114 30.9511C21.2292 31.1359 21.241 31.3269 21.2351 31.5117C21.2351 31.5487 21.2351 31.5857 21.2292 31.6288V31.6226Z" fill="white"/>
<path d="M21.8386 29.4171C21.7025 28.7024 21.5842 27.9755 21.4244 27.267C21.2351 26.4168 20.957 25.5851 20.6375 24.778C20.3062 23.9402 19.6317 23.3549 18.833 23.0161C18.0461 22.6834 17.1646 22.6403 16.3481 22.8928C15.8748 23.0407 15.4251 23.1947 14.9341 23.2748C14.8986 23.281 14.8276 23.2933 14.7329 23.2995C14.6383 23.3118 14.5377 23.3179 14.4371 23.3179H14.1886C14.1472 23.3118 14.0999 23.3118 14.0525 23.3056C14.0407 23.3056 14.0111 23.3056 13.9934 23.3056C13.8336 23.281 13.6739 23.2379 13.5201 23.1824C13.5082 23.1762 13.4786 23.1639 13.4668 23.1578H13.455C13.4254 23.1393 13.3958 23.1208 13.3662 23.1085C13.2952 23.0715 13.2242 23.0284 13.1532 22.9791C13.1414 22.9668 13.0941 22.936 13.0763 22.9237H13.0704C13.0704 22.9237 13.0231 22.8805 13.0112 22.8682C12.9402 22.8066 12.8752 22.745 12.816 22.6772C12.6622 22.5047 12.5971 22.4185 12.4788 22.2275C11.9936 21.4636 11.6919 20.6257 11.4197 19.757C11.1061 18.7651 10.8577 17.7548 10.6151 16.7444C10.5204 16.344 10.4258 15.9435 10.3607 15.5369C10.3548 15.4938 10.3548 15.4753 10.3548 15.4753C10.3548 15.463 10.3548 15.4445 10.3548 15.4322C10.3488 15.3767 10.3429 15.3274 10.337 15.2782C10.337 15.1611 10.3252 15.0441 10.3252 14.927C10.3252 14.8346 10.3311 14.736 10.337 14.6374C10.3429 14.6374 10.3429 14.6313 10.3429 14.6251C10.3429 14.6066 10.3429 14.5882 10.3429 14.5697C10.3548 14.5142 10.3725 14.4526 10.3903 14.3972C10.3962 14.3787 10.4139 14.3171 10.4198 14.3048C10.4317 14.2863 10.4494 14.237 10.4613 14.2247C10.4849 14.1877 10.5027 14.1446 10.5323 14.1138C10.5441 14.0953 10.5737 14.0645 10.5796 14.0522C10.6092 14.0275 10.6387 13.9967 10.6683 13.9721L10.6861 13.9536C10.6861 13.9536 10.692 13.9536 10.7038 13.9413H10.7097C10.7097 13.9413 10.7157 13.929 10.7216 13.929C10.7926 13.8797 10.8636 13.8304 10.9405 13.7934C10.9819 13.7688 11.0174 13.7503 11.0529 13.7318C11.0647 13.7318 11.1121 13.7072 11.1121 13.7072H11.1239C11.2126 13.664 11.2955 13.6332 11.3842 13.6024C11.5735 13.5347 11.7629 13.4731 11.9522 13.4115C12.3131 13.2882 12.6977 13.1527 13.0172 12.9186C13.2893 12.7276 13.5082 12.4873 13.6975 12.204C14.0703 11.6556 14.2182 10.978 14.2951 10.3188C14.372 9.60412 14.3306 8.88331 14.2419 8.17482C14.0644 6.75785 13.7212 5.37784 13.2893 4.02248C13.1 3.42489 12.8988 2.83962 12.5498 2.31595C12.1238 1.66291 11.5617 1.10228 10.8991 0.707997C10.1595 0.270584 9.31347 0.067279 8.4615 0.104244H8.44375C7.26638 0.165851 6.08901 0.202815 4.92347 0.412281C3.7816 0.621746 2.65156 1.04068 1.77593 1.8539C0.734635 2.83345 0.284986 4.25043 0.154825 5.66124C0.0719946 6.58535 0.101577 7.52794 0.125243 8.45822C0.154825 9.47474 0.213989 10.4913 0.314568 11.5016C0.409231 12.4627 0.533477 13.4299 0.734635 14.3725C0.95946 15.4199 1.19612 16.461 1.45644 17.496C1.94159 19.449 2.50365 21.3773 3.14854 23.2748C3.82893 25.2586 4.60398 27.1992 5.4382 29.1152C5.84052 30.0332 6.231 30.9449 6.79306 31.7705C7.31371 32.5283 7.91719 33.2244 8.61533 33.8097C9.99977 34.9802 11.6268 35.7195 13.3899 35.9721C15.1175 36.2247 16.9693 36.1323 18.5964 35.43C19.3832 35.0911 20.1465 34.6167 20.7973 34.05C21.4244 33.5017 21.9214 32.7439 22.0575 31.8999C22.1876 31.0805 21.9924 30.218 21.8386 29.4171ZM21.2292 31.6226V31.6658C21.2292 31.6658 21.2292 31.6781 21.2232 31.6842V31.7027C21.2232 31.7027 21.2114 31.7397 21.2114 31.7458C21.1996 31.8136 21.1818 31.8814 21.1641 31.943C21.1049 32.1586 21.0694 32.2572 20.9807 32.442C20.9393 32.5221 20.8919 32.6022 20.8446 32.6761C20.815 32.7192 20.7854 32.7624 20.7558 32.8055C20.744 32.8178 20.7381 32.8363 20.7322 32.8486C20.7322 32.8486 20.7263 32.8486 20.7204 32.8609C20.7144 32.8609 20.7085 32.8733 20.7026 32.8794C20.5843 33.0273 20.46 33.1628 20.3239 33.2922C20.0459 33.5509 19.7501 33.7604 19.401 33.9822C19.0637 34.1978 18.7147 34.4073 18.3538 34.5736C18.336 34.5798 18.2887 34.5983 18.2828 34.6044C18.2414 34.6229 18.194 34.6352 18.1526 34.6537C18.058 34.6907 17.9633 34.7276 17.8627 34.7584C17.6675 34.8262 17.4663 34.8878 17.2652 34.9371C16.8628 35.0418 16.4724 35.1096 16.0937 35.1466C15.6677 35.1897 15.2358 35.2082 14.8098 35.202C14.5909 35.202 14.372 35.1835 14.1531 35.1651C13.9756 35.1527 13.7153 35.1219 13.591 35.1035C13.171 35.0418 12.7509 34.9556 12.3368 34.8385C12.1474 34.7893 11.9581 34.7276 11.7688 34.6599C11.6741 34.6291 11.5795 34.5921 11.4848 34.5551C11.4434 34.5367 11.402 34.5182 11.3606 34.4997C11.3369 34.4935 11.3132 34.4812 11.2955 34.4751C11.2955 34.4751 11.2896 34.4751 11.2777 34.4751H11.2718C9.71578 33.7727 8.37275 32.6083 7.43204 31.1729C6.89956 30.3535 6.52091 29.454 6.13042 28.5546C5.72219 27.6181 5.3317 26.6817 4.96489 25.7268C4.25491 23.9094 3.62186 22.055 3.07163 20.176C2.49773 18.223 2.0185 16.2454 1.5866 14.2493C1.1902 12.3888 1.04821 10.4913 0.989042 8.57527C0.95946 7.66964 0.935794 6.74553 1.00087 5.8399C1.01271 5.74133 1.01862 5.64276 1.03046 5.55034C1.03046 5.50106 1.04229 5.45177 1.04821 5.40249V5.37784C1.04821 5.37784 1.05412 5.33472 1.06004 5.31624C1.0837 5.12525 1.1192 4.93427 1.16654 4.74945C1.20795 4.57695 1.24937 4.40445 1.30853 4.23194C1.3322 4.15802 1.35586 4.08409 1.38544 4.01016C1.39136 3.98551 1.40319 3.95471 1.41503 3.93007C1.41503 3.93007 1.43869 3.87462 1.44461 3.84998C1.56885 3.57274 1.71085 3.30783 1.88242 3.0614C1.88242 3.0614 1.91792 3.01828 1.92975 2.99979C1.94159 2.98131 1.95934 2.95667 1.96525 2.95051C2.01259 2.89506 2.054 2.84578 2.10133 2.79033C2.19599 2.6856 2.29066 2.58702 2.39715 2.48845C2.44448 2.44533 2.49182 2.4022 2.53915 2.36524C2.5569 2.34676 2.58056 2.32827 2.58056 2.32827C2.59831 2.31595 2.61606 2.30363 2.63381 2.28515C2.74622 2.20506 2.85864 2.12497 2.97105 2.0572C3.08346 1.98943 3.19587 1.92166 3.3142 1.86622C3.37336 1.83541 3.43845 1.80461 3.49761 1.77381C3.49761 1.77381 3.50944 1.77381 3.51536 1.76765C3.55086 1.74916 3.56861 1.743 3.59227 1.73068C3.59227 1.73068 3.60411 1.73068 3.61594 1.72452C4.12475 1.51505 4.66315 1.37952 5.20154 1.28095C5.27254 1.26862 5.34354 1.2563 5.41453 1.24398C5.44412 1.23782 5.47962 1.23782 5.51511 1.23166C5.53286 1.23166 5.55653 1.2255 5.57428 1.21934C5.71036 1.20702 5.84643 1.18854 5.9766 1.17005C6.26058 1.13925 6.54457 1.12077 6.82856 1.09612C7.36104 1.05916 7.89352 1.04068 8.426 1.00987H8.44375C9.23655 0.972909 9.95244 1.15157 10.6092 1.57666C11.1594 1.92782 11.6327 2.44533 11.964 3.01828C12.0409 3.15381 12.1119 3.28935 12.177 3.43721C12.1889 3.46801 12.2007 3.49882 12.2184 3.53578V3.5481C12.2184 3.5481 12.2244 3.56042 12.2303 3.57274C12.2599 3.64051 12.2776 3.70212 12.3013 3.76989C12.3841 4.01632 12.461 4.26275 12.5379 4.51534C12.7332 5.1499 12.9107 5.79061 13.0586 6.43749C13.1414 6.78865 13.2183 7.14598 13.2775 7.5033C13.3071 7.68196 13.3366 7.86062 13.3603 8.03313C13.3721 8.07009 13.3721 8.10089 13.3781 8.13786C13.3781 8.11938 13.3899 8.21795 13.3899 8.23643C13.4017 8.32884 13.4136 8.42125 13.4195 8.51366C13.455 8.86483 13.4727 9.22215 13.4727 9.57331C13.4727 9.74581 13.4668 9.91831 13.455 10.0908C13.4491 10.1647 13.4431 10.2448 13.4313 10.3188V10.3496C13.4254 10.3927 13.4195 10.4358 13.4076 10.4789C13.384 10.6391 13.3544 10.7931 13.313 10.941C13.2952 11.0088 13.2775 11.0765 13.2538 11.1443C13.242 11.1751 13.2301 11.2059 13.2183 11.2429C13.2124 11.249 13.2065 11.2798 13.2006 11.2983C13.2006 11.2983 13.1986 11.3024 13.1946 11.3106L13.1887 11.3291C13.1769 11.3538 13.1651 11.3784 13.1591 11.3846C13.1473 11.4154 13.1355 11.4462 13.1177 11.4708C13.0882 11.5386 13.0527 11.6002 13.0172 11.6556C12.9876 11.7049 12.958 11.7481 12.9225 11.7973C12.9225 11.7973 12.9225 11.8097 12.9166 11.8097C12.9166 11.8158 12.9107 11.8158 12.9107 11.822L12.8988 11.8343C12.8692 11.8713 12.8456 11.8959 12.816 11.9267C12.7746 11.976 12.7332 12.0191 12.6858 12.0623C12.6681 12.0746 12.6563 12.0869 12.6385 12.1054L12.603 12.1362C12.603 12.1362 12.5912 12.1423 12.5793 12.1485C12.5143 12.1978 12.4433 12.2409 12.3723 12.2779C12.3308 12.3025 12.2894 12.3272 12.2421 12.3456C12.2421 12.3518 12.1948 12.3703 12.1711 12.3826C11.828 12.5243 11.467 12.6229 11.118 12.7523C10.3548 13.0295 9.65662 13.4854 9.50871 14.3787C9.3608 15.2535 9.58562 16.1407 9.78678 16.9847C10.0234 17.9643 10.2601 18.95 10.5618 19.911C10.8399 20.7982 11.1594 21.6915 11.6209 22.4924C12.0291 23.1947 12.5853 23.7923 13.3426 24.0634C14.0703 24.3221 14.8808 24.2236 15.6145 24.0634C16.0878 23.9525 16.5374 23.7369 17.0107 23.6568C17.0107 23.6568 17.0758 23.6445 17.0936 23.6445C17.1409 23.6383 17.1942 23.6321 17.2474 23.6321C17.3421 23.626 17.4367 23.626 17.5314 23.6321C17.6142 23.6321 17.6911 23.6383 17.774 23.6506C17.774 23.6506 17.845 23.6506 17.8568 23.6629C17.916 23.6753 17.9751 23.6876 18.0343 23.6999C18.2118 23.743 18.3893 23.7985 18.5668 23.8724C18.5786 23.8786 18.5845 23.8786 18.5845 23.8786C18.5964 23.8847 18.6141 23.8909 18.6259 23.897C18.6673 23.9155 18.7028 23.934 18.7443 23.9587C18.8389 24.0079 18.9277 24.0572 19.0105 24.1188C19.1821 24.2297 19.2353 24.2729 19.3832 24.4207C19.543 24.5809 19.5903 24.6425 19.6968 24.815C19.7382 24.8889 19.7796 24.969 19.8151 25.0491V25.0614C19.8151 25.0614 19.8151 25.0676 19.827 25.0738V25.0861L19.8506 25.1292L19.9394 25.3695C20.0222 25.5913 20.105 25.8192 20.182 26.0472C20.3062 26.4168 20.4245 26.7926 20.5192 27.1746C20.6908 27.8584 20.7973 28.5607 20.9274 29.2569C21.0043 29.645 21.0813 30.0332 21.1404 30.4213C21.1759 30.6431 21.1877 30.7293 21.2114 30.9511C21.2292 31.1359 21.241 31.3269 21.2351 31.5117C21.2351 31.5487 21.2351 31.5857 21.2292 31.6288V31.6226Z" stroke="white" stroke-width="0.2" mask="url(#path-1-outside-1_15_90)"/>
</svg>
