<svg width="75" height="38" viewBox="0 0 75 38" fill="none" xmlns="http://www.w3.org/2000/svg">
<path d="M6.176 18.4838C7.168 18.4838 8.02667 18.6492 8.752 18.9798C9.488 19.3105 10.0533 19.7798 10.448 20.3878C10.8427 20.9958 11.04 21.7158 11.04 22.5478C11.04 23.3692 10.8427 24.0892 10.448 24.7078C10.0533 25.3158 9.488 25.7852 8.752 26.1158C8.02667 26.4358 7.168 26.5958 6.176 26.5958H3.92V29.6838H1.328V18.4838H6.176ZM6.032 24.4838C6.81067 24.4838 7.40267 24.3185 7.808 23.9878C8.21333 23.6465 8.416 23.1665 8.416 22.5478C8.416 21.9185 8.21333 21.4385 7.808 21.1078C7.40267 20.7665 6.81067 20.5958 6.032 20.5958H3.92V24.4838H6.032ZM23.0468 18.4838V26.1798C23.0468 27.8652 22.5774 29.1558 21.6388 30.0518C20.7001 30.9585 19.4041 31.4118 17.7508 31.4118C16.8014 31.4118 15.9321 31.2785 15.1428 31.0118C14.3534 30.7558 13.6814 30.3878 13.1268 29.9078L14.1348 27.9878C15.1481 28.8092 16.3321 29.2198 17.6868 29.2198C18.6254 29.2198 19.3188 28.9852 19.7668 28.5158C20.2254 28.0358 20.4548 27.2998 20.4548 26.3078V25.6198C19.7081 26.5372 18.6521 26.9958 17.2868 26.9958C15.8681 26.9958 14.7748 26.5958 14.0068 25.7958C13.2494 24.9852 12.8708 23.8225 12.8708 22.3078V18.4838H15.4628V22.1478C15.4628 23.0225 15.6708 23.6838 16.0868 24.1318C16.5028 24.5798 17.0894 24.8038 17.8468 24.8038C18.6468 24.8038 19.2814 24.5692 19.7508 24.0998C20.2201 23.6305 20.4548 22.9212 20.4548 21.9718V18.4838H23.0468ZM33.1773 23.9078H35.5453V29.6838H33.5933V29.0118C32.8146 29.5878 31.8119 29.8758 30.5853 29.8758C29.5506 29.8758 28.6013 29.6518 27.7373 29.2038C26.8733 28.7558 26.1853 28.1052 25.6733 27.2518C25.1613 26.3878 24.9053 25.3638 24.9053 24.1798C24.9053 23.0385 25.1666 22.0252 25.6893 21.1398C26.2226 20.2438 26.9586 19.5452 27.8973 19.0438C28.8359 18.5425 29.8919 18.2918 31.0653 18.2918C32.0466 18.2918 32.9373 18.4572 33.7373 18.7878C34.5373 19.1185 35.2093 19.5985 35.7533 20.2278L34.0893 21.7638C33.2893 20.9212 32.3239 20.4998 31.1933 20.4998C30.4786 20.4998 29.8439 20.6545 29.2893 20.9638C28.7346 21.2625 28.3026 21.6892 27.9933 22.2438C27.6839 22.7985 27.5293 23.4385 27.5293 24.1638C27.5293 24.9212 27.6786 25.5665 27.9773 26.0998C28.2866 26.6332 28.6973 27.0385 29.2093 27.3158C29.7213 27.5825 30.2813 27.7158 30.8893 27.7158C31.7959 27.7158 32.5586 27.4598 33.1773 26.9478V23.9078Z" fill="white"/>
<path opacity="0.4" d="M54.5375 27.4958C62.011 27.4958 68.0694 21.4938 68.0694 14.0898C68.0694 6.68591 62.011 0.683838 54.5375 0.683838C47.0641 0.683838 41.0056 6.68591 41.0056 14.0898C41.0056 21.4938 47.0641 27.4958 54.5375 27.4958Z" stroke="white" stroke-miterlimit="10"/>
<path d="M41.2803 17.1648C39.7994 9.90829 44.3219 2.45856 51.6465 1.00024" stroke="#009C41" stroke-width="2" stroke-miterlimit="10" stroke-linecap="round"/>
<path d="M74.6754 5.74414H47.9397V11.1909H74.6754V5.74414Z" fill="#009C41"/>
<path d="M54.2889 15.3196H47.9397V37.6336H54.2889V15.3196Z" fill="#009C41"/>
<path d="M64.4246 11.1907H58.0754V37.6425H64.4246V11.1907Z" fill="#009C41"/>
</svg>
