<svg width="33" height="33" viewBox="0 0 33 33" fill="none" xmlns="http://www.w3.org/2000/svg">
<path d="M11.917 1C14.9883 1.00007 17.5507 2.05248 19.665 4.16797C21.7798 6.28382 22.8319 8.8466 22.833 11.917L22.8242 12.376C22.7814 13.4399 22.5883 14.4405 22.25 15.3828C21.4859 17.5114 21.461 20.3087 23.3076 22.1553L31.0098 29.8574C31.3277 30.1757 31.3279 30.6916 31.0098 31.0098C30.6916 31.3279 30.1757 31.3277 29.8574 31.0098L22.1553 23.3076C20.3087 21.461 17.5114 21.4859 15.3828 22.25C14.3062 22.6365 13.1533 22.833 11.917 22.833C8.84561 22.833 6.28336 21.7805 4.16895 19.665C2.05436 17.5493 1.00129 14.9871 1 11.917C1 8.84569 2.05261 6.28333 4.16797 4.16895C6.15168 2.18628 8.52827 1.13695 11.3477 1.0127L11.917 1ZM11.916 2.66699C9.36232 2.66715 7.15945 3.57298 5.36523 5.36719C3.57094 7.16151 2.66568 9.36402 2.66699 11.917L2.67773 12.3916C2.78385 14.7446 3.68502 16.7866 5.36719 18.4688C7.04929 20.1507 9.09038 21.0513 11.4424 21.1562L11.917 21.167C14.4708 21.1669 16.6745 20.2611 18.4688 18.4668C20.151 16.7846 21.0514 14.7429 21.1562 12.3906L21.167 11.916C21.1668 9.36245 20.2608 7.1594 18.4668 5.36523C16.6724 3.57085 14.4691 2.66563 11.916 2.66699Z" fill="#3F3F3F" stroke="#3F3F3F" stroke-width="2"/>
</svg>
