<svg width="393" height="609" viewBox="0 0 393 609" fill="none" xmlns="http://www.w3.org/2000/svg">
<path d="M179.619 82.8909C178.761 81.8551 178.022 80.9677 176.886 81.0751C176.333 81.1319 175.909 81.4173 175.576 81.7733C175.353 80.4366 175.266 79.2157 175.459 78.2051C176.105 74.7275 175.051 72.4128 174.055 71.0783C172.938 69.5854 171.455 68.6865 170.159 68.1516C170.513 65.7882 170.807 62.0888 170.167 57.9836C169.153 51.471 165.552 42.6669 154.182 37.6952C134.292 29.0042 120.793 30.6414 110.935 31.837L109.982 31.9526L109.05 32.0657L108.117 32.1788L107.164 32.2943C97.3061 33.49 83.8075 35.1271 66.5714 48.3209C56.7201 55.8663 55.3275 65.2761 55.9 71.8422C56.2607 75.9914 57.4295 79.5033 58.3387 81.7135C57.2079 82.5427 55.983 83.77 55.255 85.4867C54.6066 87.0206 54.1363 89.5202 55.5956 92.7424C55.9574 93.5432 56.1604 94.5465 56.2766 95.6723C55.9423 95.9367 55.5953 96.2638 55.2267 96.6647C53.6769 98.3182 52.359 98.9461 51.3962 99.3988C50.5779 99.783 49.7984 100.152 49.5383 101.029C49.291 101.842 49.6591 102.612 50.0539 103.266C50.0676 103.295 50.0901 103.313 50.1038 103.341C50.4952 103.884 51.4383 104.696 52.6803 104.617C53.0371 105.041 53.6362 106.037 54.056 106.729C55.3313 108.854 56.0851 110.035 57.1369 110.233C57.8349 113.304 59.2137 116.281 61.935 118.75C65.7554 122.225 69.3685 125.502 77.959 126.943C86.5295 128.387 99.618 127.898 120.387 125.379C141.157 122.86 153.981 120.196 161.959 116.755C169.946 113.303 172.671 109.258 175.56 104.969C178.319 100.869 178.505 96.4396 177.911 92.2983C178.145 92.1275 178.35 91.8888 178.491 91.546C178.711 91.3463 179.413 91.0068 179.884 90.7767C181.372 90.0465 183.062 89.2106 183.221 87.6648C183.308 86.7892 182.883 85.9756 181.938 85.2252C180.959 84.4585 180.232 83.5799 179.648 82.8772L179.619 82.8909ZM56.1419 105.469C54.8279 103.277 53.9498 101.827 52.5865 102.165C52.3784 102.211 52.1699 102.002 52.1 101.929C52.0738 101.881 52.0489 101.844 52.0352 101.815C52.1595 101.749 52.3039 101.68 52.4394 101.623C53.4499 101.144 55.1532 100.337 57.0187 98.3505C58.3709 96.9143 58.6311 97.0456 59.2714 97.375C60.4646 97.9834 61.8136 98.4508 64.0861 96.8827C64.4617 96.6234 64.7176 96.5517 64.8215 96.5696C65.1346 96.6334 65.6491 97.4361 66.0254 98.0214C66.5661 98.8718 67.305 100.014 68.4252 100.692C68.2043 100.8 67.9834 100.908 67.7624 101.017C66.9942 101.395 66.2397 101.802 65.5353 102.203C65.1824 102.398 64.8509 102.601 64.5382 102.792C64.2255 102.982 63.9316 103.16 63.6578 103.336C63.119 103.676 62.6781 103.984 62.3779 104.194C62.0776 104.403 61.8992 104.526 61.8992 104.526C61.8992 104.526 62.0925 104.442 62.4314 104.299C62.769 104.146 63.2534 103.945 63.8469 103.72C64.138 103.604 64.4592 103.483 64.8005 103.36C65.1418 103.238 65.5031 103.112 65.8757 102.996C66.6196 102.753 67.425 102.513 68.2327 102.293C69.8494 101.863 71.4771 101.523 72.7046 101.323C73.2036 101.242 73.6336 101.18 73.9633 101.13C74.1251 102.128 74.7129 103.451 77.0496 103.503C78.0082 103.519 78.5139 103.661 78.8154 103.798C78.5367 103.933 78.258 104.069 77.9705 104.216C77.5451 104.4 77.1221 104.604 76.6854 104.779C76.2475 104.944 75.8132 105.139 75.3741 105.294C74.9349 105.449 74.5058 105.603 74.0743 105.737C73.6428 105.87 73.2301 105.992 72.8374 106.11C72.4436 106.219 72.0674 106.306 71.7124 106.4C71.3675 106.492 71.0414 106.573 70.753 106.628C70.4646 106.683 70.2176 106.744 70.0082 106.779C69.5918 106.87 69.3636 106.919 69.3636 106.919C69.3636 106.919 69.6067 106.909 70.0228 106.9C70.2358 106.894 70.489 106.884 70.7834 106.879C71.0779 106.873 71.4113 106.853 71.7735 106.82C72.137 106.796 72.5306 106.769 72.9429 106.729C73.3541 106.679 73.7954 106.625 74.2467 106.571C74.698 106.516 75.1657 106.429 75.6458 106.36C76.1248 106.282 76.6001 106.173 77.0879 106.083C77.5632 105.975 78.0472 105.855 78.5213 105.737C78.9829 105.599 79.457 105.481 79.8961 105.326C80.3365 105.181 80.7668 105.037 81.1746 104.875C81.5849 104.734 81.9614 104.566 82.3103 104.422C82.6567 104.258 82.9767 104.128 83.2542 103.982C83.5328 103.846 83.7802 103.705 83.9811 103.599C84.1907 103.482 84.3327 103.393 84.4646 103.306C84.5776 103.231 84.6341 103.194 84.6341 103.194L84.5867 103.139C85.3884 103.204 86.2901 103.339 87.1505 103.469C88.4567 103.667 89.8455 103.875 91.2149 103.922C90.4786 104.144 89.7623 104.363 89.0673 104.59C88.499 104.771 87.9608 104.948 87.4439 105.133C86.9269 105.318 86.4477 105.478 86.001 105.654C85.5531 105.82 85.1552 105.98 84.7951 106.116C84.4362 106.261 84.1263 106.39 83.874 106.492C83.7862 106.523 83.7196 106.561 83.6418 106.591C82.7836 106.563 81.8847 106.703 80.8262 106.953C80.2819 107.08 79.7978 107.2 79.3438 107.316C77.8827 107.687 76.7175 107.981 74.2167 108.253C72.1384 108.485 71.653 108.259 70.8437 107.879C70.4772 107.71 70.0131 107.491 69.3986 107.291C67.5687 106.719 66.1199 108.197 65.0696 109.271C64.7527 109.595 64.2358 110.115 63.9808 110.278C63.3733 109.884 62.0582 108.018 61.1013 106.17C60.9408 105.854 60.6497 105.635 60.3129 105.543C59.9774 105.462 59.6088 105.527 59.3274 105.724C59.2809 105.76 58.2936 106.429 57.3552 107.418C56.9637 106.875 56.4555 106.041 56.1118 105.473L56.1419 105.469ZM59.3299 84.4327C59.6068 84.45 59.8937 84.4661 60.1994 84.4697C60.9661 84.4989 61.8043 84.5295 62.7251 84.5705C63.6536 84.5902 64.6534 84.6114 65.7134 84.6253C66.7859 84.6581 67.9237 84.6422 69.1254 84.6491C70.3258 84.646 71.59 84.6657 72.9083 84.628C74.2279 84.6002 75.5988 84.5764 77.0299 84.5453C78.4509 84.5155 79.9273 84.4382 81.4374 84.3874C84.4688 84.2945 87.6561 84.0605 90.9611 83.8734C92.6191 83.7843 94.2875 83.6125 95.9921 83.4872C97.6943 83.3418 99.4101 83.2253 101.14 83.0562C102.868 82.8771 104.618 82.7056 106.367 82.524C108.116 82.3425 109.877 82.1798 111.639 81.9456C113.394 81.7328 115.149 81.5199 116.903 81.2971C117.776 81.1912 118.648 81.0854 119.521 80.9796C120.391 80.8537 121.251 80.729 122.121 80.6032C123.851 80.3526 125.561 80.1045 127.251 79.8588C128.941 79.6132 130.612 79.3799 132.246 79.0902C135.527 78.5396 138.689 78.0136 141.702 77.5159C144.696 76.9492 147.533 76.422 150.138 75.9228C151.441 75.6732 152.695 75.4397 153.889 75.2135C155.082 74.9873 156.201 74.7295 157.263 74.5091C159.376 74.0595 161.222 73.6728 162.739 73.3463C165.775 72.7033 167.511 72.33 167.511 72.33C167.511 72.33 165.796 72.7923 162.799 73.5833C161.3 73.9788 159.477 74.4746 157.387 75.0234C156.341 75.2927 155.229 75.6107 154.053 75.8959C152.876 76.181 151.631 76.4847 150.337 76.8045C147.747 77.4341 144.939 78.1105 141.974 78.8365C138.991 79.4934 135.849 80.1899 132.589 80.9111C130.965 81.281 129.295 81.6057 127.616 81.9417C125.937 82.2776 124.227 82.6172 122.508 82.958C121.653 83.1228 120.789 83.2988 119.924 83.4648C119.057 83.6208 118.18 83.7679 117.313 83.9239C115.569 84.227 113.816 84.5414 112.062 84.8457C110.311 85.1701 108.552 85.4343 106.794 85.7086C105.036 85.9828 103.297 86.2446 101.56 86.5164C99.8207 86.7782 98.0957 86.9874 96.3945 87.2243C94.6908 87.4411 93.0021 87.6968 91.3449 87.8774C88.0205 88.2399 84.8125 88.6392 81.7504 88.8986C80.22 89.0333 78.7333 89.1933 77.2907 89.297C75.8481 89.4007 74.4556 89.4983 73.1145 89.5999C71.7746 89.7116 70.4876 89.7557 69.2644 89.8226C68.0412 89.8896 66.8793 89.9592 65.7829 89.9803C64.6876 90.0113 63.665 90.054 62.7113 90.078C61.7565 90.0921 60.883 90.1064 60.0999 90.1098C59.3079 90.1244 58.6037 90.1081 57.9835 90.112C57.8306 90.1102 57.6878 90.1072 57.5562 90.113C56.9056 87.4339 58.0564 85.5947 59.3324 84.4528L59.3299 84.4327ZM108.575 105.257C108.427 105.387 108.259 105.509 108.101 105.63C107.943 105.751 107.773 105.863 107.612 105.964C107.283 106.187 106.948 106.36 106.624 106.542C106.299 106.713 105.98 106.854 105.693 107.001C105.393 107.129 105.121 107.243 104.88 107.354C104.726 107.423 104.579 107.471 104.444 107.529C104.153 107.309 103.867 107.222 103.536 107.262C103.446 107.273 103.346 107.285 103.249 107.327C102.287 107.617 102.23 108.571 102.177 109.483C102.141 110.108 102.092 110.959 101.904 112.009C101.874 112.186 101.81 112.407 101.685 112.473C101.116 112.817 99.2003 112.205 97.9288 111.789C96.3293 111.271 94.8161 110.793 93.5224 110.95C93.5023 110.952 93.4823 110.955 93.4622 110.957C91.8075 111.158 90.9103 110.473 89.4284 109.329C88.9686 108.978 88.4513 108.573 87.865 108.186C86.3576 107.168 85.1726 106.711 83.96 106.614C84.2259 106.541 84.542 106.462 84.907 106.367C85.2832 106.28 85.6983 106.179 86.1636 106.072C86.6176 105.956 87.1254 105.863 87.6521 105.759C88.1775 105.644 88.7355 105.546 89.3135 105.445C90.4683 105.234 91.707 105.043 92.9481 104.872C94.1893 104.701 95.4341 104.561 96.5986 104.43C97.5638 104.333 98.48 104.252 99.2972 104.194C100.368 104.715 101.743 105.23 103.908 105.294C106.156 105.367 107.894 105.187 109.144 104.75L109.045 104.854C108.91 105.002 108.752 105.123 108.605 105.253L108.575 105.257ZM165.452 86.4817C165.254 86.4447 165.047 86.4189 164.853 86.4119C167.572 85.8379 169.121 85.5178 169.121 85.5178C169.121 85.5178 167.8 85.8713 165.453 86.4918L165.452 86.4817ZM162.326 87.3086C161.3 87.5755 160.187 87.8734 158.964 88.1948C157.918 88.4641 156.806 88.7821 155.62 89.0685C154.433 89.3549 153.197 89.6473 151.901 89.9571C151.407 90.0781 150.902 90.1902 150.388 90.3137C150.338 90.3197 150.287 90.3258 150.25 90.3508C148.123 90.853 145.868 91.3911 143.513 91.9413C141.866 92.2937 140.168 92.6421 138.433 93.0154C138.433 93.0154 138.433 93.0154 138.413 93.0178C137.627 92.7468 136.753 92.924 135.497 93.6462C135.031 93.7435 134.564 93.8408 134.088 93.9393C132.452 94.3005 130.788 94.5939 129.097 94.911C127.405 95.2281 125.693 95.5376 123.971 95.8583C123.931 95.8632 123.891 95.8681 123.851 95.8729C120.687 95.1269 118.215 95.5489 117.099 97.0073C116.391 97.1237 115.681 97.2301 114.973 97.3466C114.259 97.25 113.489 97.1093 112.896 97.0081C109.653 96.4448 107.699 96.1118 106.989 97.4701C106.799 97.8291 106.781 98.1874 106.851 98.5148C105.54 98.6942 104.237 98.8623 102.936 99.0405C101.192 99.2622 99.4524 99.4324 97.7463 99.6292C96.8939 99.7326 96.039 99.8159 95.1954 99.908C94.353 100.01 93.5082 100.092 92.6709 100.153C90.1829 100.363 87.7574 100.586 85.4174 100.758C84.0146 100.603 82.7616 100.592 81.7514 100.989C80.661 101.06 79.5907 101.129 78.548 101.174C78.5279 101.176 78.5079 101.179 78.4878 101.181C78.0934 101.117 77.6399 101.07 77.1099 101.063C76.59 101.055 76.435 100.952 76.4249 100.953C76.3726 100.858 76.3602 100.503 76.3459 100.301C76.3218 99.6833 76.2989 98.7396 75.4489 98.1914C74.5213 97.5914 73.2659 97.8964 71.6659 98.5484C69.8225 99.291 69.1952 98.4817 68.0651 96.7156C67.9505 96.5259 67.8271 96.3475 67.7025 96.1591C68.6045 96.2126 69.5542 96.2398 70.5452 96.2723C71.7505 96.3093 73.0008 96.3816 74.324 96.384C75.6383 96.3976 77.0153 96.4239 78.4412 96.4342C79.8684 96.4544 81.3396 96.4185 82.8545 96.4078C85.8869 96.4064 89.0852 96.2627 92.3898 96.1571C93.2219 96.1376 94.0515 96.098 94.8887 96.0372C95.7272 95.9864 96.5769 95.9444 97.4254 95.8924C99.1224 95.7883 100.853 95.7107 102.588 95.5818C104.321 95.4428 106.074 95.2913 107.827 95.1499C109.581 95.0085 111.345 94.8758 113.112 94.6718C114.87 94.489 116.638 94.295 118.386 94.1135C119.26 94.0177 120.135 93.9319 121.009 93.8361C121.881 93.7303 122.753 93.6144 123.614 93.4998C125.346 93.2693 127.059 93.0413 128.752 92.8257C130.445 92.6001 132.13 92.3958 133.765 92.116C137.05 91.5955 140.225 91.0984 143.241 90.6208C146.237 90.0741 149.075 89.557 151.693 89.0766C153.007 88.8358 154.261 88.6023 155.456 88.3862C156.649 88.16 157.769 87.9122 158.831 87.6918C160.31 87.3802 161.659 87.0944 162.85 86.8481C162.652 86.974 162.469 87.1387 162.309 87.3311L162.326 87.3086ZM176.336 90.3012C176.255 90.311 176.173 90.3006 176.102 90.3091C175.502 90.3107 174.596 90.3086 173.912 91.043C173.39 91.605 173.173 92.415 173.258 93.5343C173.267 93.6146 173.263 93.6659 173.256 93.6872C172.994 93.8817 171.937 93.9693 171.231 94.0244C169.195 94.1898 166.404 94.4164 164.667 96.7948C163.778 98.0221 161.189 97.7357 158.911 97.493C156.549 97.2299 154.322 96.9911 152.938 98.1665C152.283 98.7243 151.93 99.51 151.878 100.504C151.866 100.821 151.762 101.311 151.062 101.834C148.262 103.914 140.297 103.689 136.047 102.627C132.542 101.75 130.103 101.445 128.808 102.681C127.768 103.672 127.93 105.179 128.138 106.222C128.259 106.798 128.105 107.122 127.968 107.332C126.926 108.893 122.228 110.013 117.768 110.91C109.282 112.6 107.886 111.915 106.087 109.497C105.443 108.639 105.005 108.041 104.595 107.683C104.705 107.67 104.814 107.646 104.933 107.622C105.192 107.57 105.489 107.504 105.816 107.433C106.131 107.344 106.488 107.27 106.851 107.155C107.214 107.04 107.606 106.921 107.994 106.762C108.188 106.688 108.392 106.602 108.594 106.506C108.796 106.411 108.999 106.325 109.199 106.209C109.4 106.103 109.599 105.987 109.797 105.852L110.098 105.652L110.386 105.424C110.767 105.123 111.118 104.745 111.401 104.314C111.696 103.891 111.909 103.387 112.032 102.883C112.154 102.38 112.182 101.858 112.126 101.396C112.079 100.924 111.976 100.499 111.859 100.116C111.75 99.8034 111.634 99.5223 111.512 99.2725C111.855 99.3327 112.187 99.384 112.489 99.439C115.929 100.029 118.413 100.461 118.98 98.6721C119.222 97.8998 121.306 97.6268 124.255 98.5311C127.141 99.4227 129.692 99.3167 132.585 98.0805C131.774 98.9422 131.001 99.789 130.411 100.461C129.669 101.304 129.177 101.862 129.177 101.862C129.177 101.862 129.799 101.451 130.731 100.829C131.664 100.217 132.91 99.415 134.181 98.6503C135.441 97.8867 136.728 97.1709 137.688 96.6882C137.774 96.6471 137.861 96.6061 137.937 96.5663C138.307 97.5188 138.977 98.6791 140.567 99.1988C143.556 100.19 146.896 98.3599 150.037 94.0505C150.093 94.1761 150.159 94.3004 150.215 94.4259C150.328 94.6055 150.434 94.8064 150.575 94.9623C150.707 95.1294 150.839 95.2966 150.989 95.4413C151.13 95.5972 151.289 95.7306 151.435 95.8452C151.583 95.9698 151.739 96.0831 151.894 96.1865C152.049 96.2898 152.182 96.3855 152.324 96.46C152.465 96.5344 152.596 96.6101 152.716 96.677C152.957 96.8107 153.181 96.8955 153.321 96.9599C153.461 97.0243 153.547 97.0647 153.547 97.0647C153.547 97.0647 153.497 96.9894 153.41 96.8575C153.323 96.7256 153.189 96.5484 153.05 96.321C152.985 96.2068 152.909 96.0837 152.842 95.9493C152.766 95.8263 152.706 95.6707 152.639 95.5363C152.571 95.392 152.512 95.2464 152.463 95.0895C152.404 94.944 152.365 94.7859 152.337 94.6367C152.298 94.4887 152.28 94.3382 152.263 94.1978C152.257 94.1477 152.25 94.0875 152.254 94.0361C153.22 94.7026 154.614 95.2867 156.714 95.0726C161.91 94.534 162.828 92.2855 163.779 89.8904C163.803 89.8366 163.826 89.7728 163.849 89.709C163.923 89.7306 163.998 89.7622 164.073 89.7938C164.69 90.0141 165.521 90.4119 166.332 90.8836C166.737 91.1194 167.143 91.3652 167.508 91.6059C167.883 91.8454 168.228 92.0885 168.518 92.2976C169.098 92.7158 169.48 93.0155 169.48 93.0155C169.48 93.0155 169.227 92.6085 168.827 91.9955C168.628 91.694 168.381 91.3372 168.113 90.9728C167.844 90.5984 167.542 90.2075 167.221 89.8291C167.102 89.6808 166.983 89.5425 166.855 89.4055C168.748 90.0002 171.338 90.7954 172.637 88.7551C173.304 87.7074 173.89 87.2496 174.568 86.7195C175.348 86.1058 176.231 85.4085 177.082 83.8703C177.1 83.8478 177.106 83.8165 177.124 83.794C177.311 83.9952 177.525 84.2541 177.716 84.4854C178.336 85.2346 179.193 86.2603 180.375 87.1957C180.533 87.3191 180.625 87.4097 180.674 87.475C180.349 87.8197 179.322 88.331 178.746 88.6146C177.643 89.1657 176.739 89.601 176.319 90.3338L176.336 90.3012ZM68.22 50.5024C69.5984 49.4498 70.9452 48.4723 72.2705 47.5686C72.5924 47.957 73.033 48.4023 73.5059 48.6095C74.0539 48.8484 74.7313 48.98 75.0421 48.2706C75.353 47.5612 74.8032 47.1394 74.2552 46.9005C74.03 46.8057 73.7796 46.7546 73.5216 46.7249C80.0995 42.3956 86.0409 39.782 91.4864 38.114C91.5004 38.3973 91.5345 38.6781 91.5838 38.9164C91.6452 39.255 91.9944 39.3653 92.2408 39.1318C92.6067 38.7923 93.0634 38.279 93.2332 37.7495C93.2472 37.6969 93.2612 37.6444 93.2752 37.5918C96.4849 36.7038 99.5093 36.1335 102.387 35.6929C102.343 35.7491 102.309 35.8041 102.264 35.8604C102.073 36.1278 102.234 36.4442 102.561 36.4554C103.04 36.4685 103.688 36.4408 104.169 36.2095C104.533 36.0228 104.896 35.7447 104.899 35.3475C105.771 35.2417 106.633 35.127 107.475 35.0248C108.107 34.9482 108.739 34.8716 109.361 34.7962C110.724 34.6308 112.043 34.5116 113.355 34.4236C113.682 34.8522 114.186 35.4016 114.724 35.6417C115.272 35.8806 115.95 36.0121 116.26 35.3027C116.46 34.8511 116.308 34.5235 116.035 34.2819C119.52 34.1543 122.82 34.2629 125.913 34.5901C125.611 34.8709 125.336 35.2095 125.147 35.4971C124.941 35.8071 125.115 36.1523 125.493 36.1675C126.035 36.1833 126.773 36.1446 127.299 35.8671C127.721 35.6531 128.129 35.3288 128.112 34.8525C132.626 35.4857 136.675 36.572 140.253 37.9599C140.097 38.2738 140.226 38.6653 140.399 39.0005C140.649 39.4689 141.165 39.8642 141.564 40.1314C141.84 40.3116 142.145 40.1423 142.147 39.8165C142.148 39.4907 142.118 39.077 142.032 38.7007C144.429 39.7534 146.588 40.9468 148.496 42.2421C148.415 42.2518 148.328 42.2828 148.232 42.3351C147.621 42.6637 147.784 43.2545 148.034 43.7229C148.284 44.1912 148.8 44.5866 149.199 44.8537C149.475 45.0339 149.78 44.8646 149.782 44.5388C149.785 44.0601 149.737 43.4146 149.487 42.9462C154.207 46.3734 157.266 50.3684 158.534 54.1125C160.223 59.1388 160.217 63.3732 158.966 66.5679C157.628 66.8625 156.022 67.21 154.187 67.6055C152.291 67.9983 150.158 68.4503 147.826 68.9368C145.49 69.3931 142.959 69.9239 140.283 70.4316C137.598 70.9506 134.773 71.4866 131.844 72.0047C128.918 72.5428 125.877 73.0642 122.796 73.5805C122.028 73.7143 121.25 73.8392 120.472 73.9742C119.694 74.0992 118.914 74.2141 118.135 74.3391C116.567 74.5802 115 74.8313 113.431 75.0724C110.293 75.5446 107.139 75.9678 104.039 76.4151C100.93 76.7922 97.8846 77.192 94.9149 77.542C91.9491 77.8406 89.0885 78.1672 86.361 78.4166C83.6399 78.6347 81.0592 78.8358 78.6814 79.0325C76.294 79.1491 74.1196 79.2601 72.1782 79.3633C71.6932 79.3916 71.227 79.4074 70.7721 79.432C70.3172 79.4567 69.8786 79.4488 69.4626 79.4586C68.6192 79.4692 67.8573 79.4802 67.1569 79.494C64.3737 79.5364 62.7785 79.5568 62.7785 79.5568C62.7785 79.5568 64.3734 79.6178 67.1535 79.7183C67.8489 79.7459 68.6256 79.7738 69.4638 79.8044C69.8823 79.8147 70.3233 79.8427 70.7706 79.8393C71.228 79.8347 71.6966 79.839 72.1752 79.842C74.1187 79.8403 76.3065 79.8396 78.7086 79.8434C81.1021 79.777 83.6874 79.6976 86.4356 79.6187C89.1789 79.4997 92.0578 79.3235 95.0518 79.1741C98.0398 78.9746 101.114 78.734 104.252 78.5062C107.381 78.2182 110.565 77.9542 113.741 77.63C115.328 77.4579 116.917 77.2958 118.494 77.1249C119.287 77.0388 120.07 76.954 120.865 76.8779C121.647 76.7831 122.43 76.6882 123.212 76.5933C126.332 76.2251 129.402 75.8629 132.376 75.4616C135.343 75.0915 138.214 74.6822 140.926 74.3025C143.649 73.9315 146.205 73.5299 148.574 73.1814C150.103 72.9452 151.541 72.7199 152.889 72.5056C152.382 72.6892 151.85 72.8351 151.304 72.9521C129.98 77.1871 93.5724 83.17 61.5644 82.2993C59.9312 78.9862 52.821 62.3132 68.2136 50.5337L68.22 50.5024ZM63.7443 116.719C61.2628 114.465 60.1077 111.654 59.5847 108.685C59.6124 108.661 59.6388 108.627 59.6677 108.613C61.3412 111.504 62.8536 112.898 64.171 112.769C65.2164 112.663 66.0138 111.854 66.8464 111C67.4262 110.41 68.2953 109.521 68.6971 109.645C69.1626 109.793 69.4866 109.947 69.8319 110.108C70.9977 110.659 71.9538 110.991 74.5236 110.699C77.1937 110.396 78.4779 110.077 79.9691 109.703C80.4131 109.588 80.8772 109.471 81.4126 109.355C83.5007 108.868 84.4118 108.828 86.4843 110.226C87.0055 110.58 87.4766 110.94 87.9264 111.293C89.5533 112.54 91.1014 113.727 93.749 113.405L93.7992 113.399C94.5613 113.307 95.9381 113.751 97.1659 114.141C99.2522 114.814 101.402 115.51 102.929 114.592C103.432 114.287 104.081 113.679 104.299 112.462C104.366 112.087 104.415 111.735 104.456 111.405C106.595 114.025 109.004 114.67 113.517 114.122C114.881 113.957 116.435 113.687 118.244 113.325C124.582 112.058 128.542 110.895 130.006 108.703C130.583 107.839 130.759 106.851 130.543 105.747C130.336 104.704 130.501 104.47 130.501 104.47C130.638 104.342 131.389 103.996 135.452 105.02C139.482 106.027 148.622 106.72 152.524 103.814C153.644 102.986 154.264 101.883 154.326 100.634C154.344 100.194 154.483 100.086 154.529 100.04C155.1 99.5529 157.061 99.7732 158.639 99.9481C159.423 100.036 160.227 100.122 161.025 100.157C164.097 106.777 156.715 111.61 147.954 114.882C146.795 115.144 145.616 115.409 144.407 115.678C142.97 115.995 141.489 116.286 139.991 116.6C138.493 116.925 136.959 117.192 135.406 117.482C133.854 117.772 132.282 118.065 130.696 118.328C129.11 118.592 127.503 118.858 125.897 119.124C124.289 119.37 122.669 119.607 121.05 119.854C119.433 120.111 117.82 120.317 116.187 120.536C114.573 120.731 112.971 120.946 111.364 121.121C108.162 121.489 105.01 121.759 101.941 121.968C95.8251 122.384 90.0822 122.44 85.1851 122.169C82.7359 122.028 80.4925 121.822 78.515 121.543C76.5387 121.273 74.8295 120.941 73.4349 120.602C72.0415 120.272 70.9714 119.923 70.2468 119.655C69.5223 119.387 69.1634 119.196 69.1634 119.196C69.1634 119.196 69.5147 119.408 70.2329 119.708C70.941 120.008 72.0059 120.398 73.3878 120.801C74.7697 121.203 76.4773 121.607 78.4546 121.967C80.4318 122.328 82.6773 122.636 85.1387 122.876C90.0613 123.358 95.8346 123.554 102.013 123.395C105.097 123.316 108.296 123.182 111.534 122.942C113.149 122.838 114.79 122.69 116.423 122.563C118.043 122.407 119.695 122.268 121.33 122.08C122.968 121.901 124.605 121.723 126.232 121.546C127.856 121.349 129.48 121.142 131.093 120.936C132.708 120.74 134.298 120.507 135.867 120.276C137.437 120.045 138.999 119.835 140.524 119.569C142.049 119.312 143.558 119.079 145.022 118.819C145.56 118.724 146.097 118.618 146.625 118.523C139.931 119.966 131.306 121.348 120.024 122.716C76.459 128 71.2887 123.63 63.7516 116.779L63.7443 116.719Z" fill="#3F3F3F"/>
<path d="M69.8905 63.8559C70.6345 63.613 70.5718 62.9286 70.3909 62.3602C70.2101 61.7919 69.7159 61.2412 69.325 60.8713C69.0603 60.6185 68.6777 60.7361 68.61 61.1006C68.5116 61.6315 68.4274 62.3643 68.6083 62.9327C68.7892 63.501 69.1466 64.0988 69.8805 63.8571L69.8905 63.8559Z" fill="#3F3F3F"/>
<path d="M73.3574 57.7056C73.7175 57.2345 73.8943 56.5108 73.9726 55.9823C74.0304 55.6191 73.7155 55.3723 73.3779 55.5252C72.8859 55.7477 72.2368 56.1012 71.8767 56.5723C71.5166 57.0435 71.2274 57.679 71.8446 58.1537C72.4619 58.6284 72.9985 58.1868 73.3586 57.7156L73.3574 57.7056Z" fill="#3F3F3F"/>
<path d="M84.5981 52.9736C85.146 53.2125 85.8234 53.3441 86.1343 52.6347C86.4451 51.9253 85.8953 51.5035 85.3474 51.2646C84.7994 51.0257 84.0664 51.023 83.5224 51.0687C83.1501 51.1036 82.9897 51.459 83.2192 51.7568C83.5459 52.1853 84.0501 52.7348 84.5881 52.9749L84.5981 52.9736Z" fill="#3F3F3F"/>
<path d="M80.418 63.3118C81.1197 63.644 81.5515 63.0929 81.8016 62.5538C82.0517 62.0146 82.0744 61.279 82.0388 60.7338C82.0138 60.3603 81.6586 60.1998 81.3595 60.4193C80.9198 60.7372 80.368 61.2214 80.1079 61.7618C79.8578 62.301 79.7062 62.9809 80.408 63.313L80.418 63.3118Z" fill="#3F3F3F"/>
<path d="M99.7167 56.8903C100.176 56.5699 100.523 55.9885 100.754 55.5432C100.911 55.2392 100.701 54.939 100.359 54.9703C99.8576 55.0311 99.1905 55.1527 98.7307 55.4731C98.281 55.7923 97.8394 56.2631 98.257 56.8536C98.6646 57.4453 99.2669 57.2094 99.7167 56.8903Z" fill="#3F3F3F"/>
<path d="M90.0112 62.2807C90.4361 62.5955 90.9953 62.8432 91.4058 62.2846C91.8163 61.7259 91.4145 61.2658 90.9896 60.9509C90.5647 60.6361 89.9275 60.4996 89.4515 60.4352C89.1309 60.3927 88.9206 60.6727 89.0586 60.9714C89.2638 61.4045 89.5875 61.9759 90.0124 62.2907L90.0112 62.2807Z" fill="#3F3F3F"/>
<path d="M85.0974 43.5806C85.5222 43.8955 86.0814 44.1431 86.492 43.5845C86.9025 43.0258 86.5007 42.5657 86.0758 42.2509C85.6509 41.936 85.0136 41.7996 84.5377 41.7352C84.2171 41.6926 84.0068 41.9726 84.1448 42.2713C84.35 42.7044 84.6737 43.2758 85.0986 43.5906L85.0974 43.5806Z" fill="#3F3F3F"/>
<path d="M102.321 50.9261C102.801 50.9391 103.449 50.9114 103.929 50.6801C104.399 50.44 104.872 50.057 104.562 49.433C104.253 48.8191 103.66 48.9623 103.189 49.1924C102.72 49.4325 102.302 49.931 102.025 50.331C101.833 50.5985 101.994 50.9148 102.321 50.9261Z" fill="#3F3F3F"/>
<path d="M104.241 42.2561C104.721 42.2692 105.369 42.2415 105.849 42.0102C106.319 41.77 106.791 41.387 106.482 40.7631C106.173 40.1492 105.58 40.2924 105.109 40.5225C104.64 40.7626 104.222 41.261 103.945 41.661C103.753 41.9285 103.914 42.2449 104.241 42.2561Z" fill="#3F3F3F"/>
<path d="M119.618 62.313C119.941 61.8768 120.323 61.2504 120.404 60.6605C120.485 60.0705 120.422 59.3761 119.646 59.2767C118.881 59.1762 118.634 59.8269 118.553 60.4168C118.472 61.0068 118.68 61.7143 118.874 62.2201C119.008 62.5702 119.4 62.6142 119.619 62.323L119.618 62.313Z" fill="#3F3F3F"/>
<path d="M137.717 50.0322C138.259 50.048 138.997 50.0094 139.523 49.7318C140.05 49.4643 140.586 49.0126 140.227 48.3233C139.869 47.6341 139.197 47.797 138.671 48.0745C138.143 48.342 137.674 48.918 137.373 49.3718C137.166 49.6818 137.34 50.0271 137.719 50.0422L137.717 50.0322Z" fill="#3F3F3F"/>
<path d="M129.175 40.26C129.716 40.2758 130.454 40.2371 130.98 39.9596C131.508 39.6921 132.043 39.2404 131.685 38.5511C131.326 37.8618 130.654 38.0248 130.128 38.3023C129.601 38.5698 129.131 39.1458 128.83 39.5996C128.624 39.9096 128.798 40.2549 129.176 40.27L129.175 40.26Z" fill="#3F3F3F"/>
<path d="M119.448 39.8522C119.976 39.7576 120.694 39.5585 121.147 39.178C121.609 38.7962 122.031 38.2464 121.542 37.6543C121.052 37.0523 120.428 37.362 119.966 37.7438C119.503 38.1255 119.176 38.786 118.971 39.279C118.83 39.6218 119.08 39.9273 119.449 39.8622L119.448 39.8522Z" fill="#3F3F3F"/>
<path d="M112.562 55.7394C113.03 55.9065 113.702 56.0794 114.25 55.9824C114.799 55.8955 115.39 55.6508 115.273 54.9323C115.156 54.2238 114.51 54.1801 113.971 54.2658C113.422 54.3528 112.846 54.7279 112.457 55.0397C112.188 55.2555 112.242 55.6154 112.571 55.7281L112.562 55.7394Z" fill="#3F3F3F"/>
<path d="M92.8454 51.6681C93.3134 51.8352 93.9856 52.0081 94.5336 51.9111C95.0827 51.8242 95.6738 51.5795 95.5561 50.861C95.4384 50.1425 94.7933 50.1088 94.2542 50.1945C93.705 50.2815 93.1297 50.6566 92.7402 50.9684C92.4712 51.1842 92.525 51.5441 92.8542 51.6568L92.8454 51.6681Z" fill="#3F3F3F"/>
<path d="M118.619 48.0334C118.984 47.6939 119.441 47.1805 119.611 46.6511C119.781 46.1216 119.836 45.484 119.147 45.2621C118.459 45.0403 118.129 45.5892 117.959 46.1187C117.789 46.6481 117.862 47.3314 117.951 47.8192C118.013 48.1577 118.362 48.2681 118.609 48.0346L118.619 48.0334Z" fill="#3F3F3F"/>
<path d="M94.3634 43.9631C94.7292 43.6236 95.186 43.1102 95.3558 42.5807C95.5257 42.0513 95.5806 41.4136 94.8922 41.1918C94.2039 40.97 93.8736 41.5189 93.7038 42.0483C93.5339 42.5778 93.6066 43.2611 93.6963 43.7489C93.7577 44.0874 94.1069 44.1977 94.3534 43.9643L94.3634 43.9631Z" fill="#3F3F3F"/>
<path d="M123.589 54.3613C123.839 54.8297 124.355 55.2251 124.754 55.4922C125.03 55.6724 125.335 55.5031 125.336 55.1773C125.339 54.6986 125.29 54.043 125.041 53.5847C124.791 53.1164 124.389 52.6563 123.778 52.9848C123.167 53.3134 123.33 53.9043 123.58 54.3726L123.589 54.3613Z" fill="#3F3F3F"/>
<path d="M112.49 47.5147C112.767 47.6949 113.072 47.5256 113.073 47.1998C113.076 46.7211 113.027 46.0655 112.778 45.6072C112.528 45.1388 112.126 44.6787 111.515 45.0073C110.903 45.3359 111.067 45.9267 111.317 46.3951C111.567 46.8634 112.083 47.2588 112.482 47.5259L112.49 47.5147Z" fill="#3F3F3F"/>
<path d="M130.706 50.5366C130.095 50.8652 130.258 51.456 130.508 51.9243C130.758 52.3927 131.274 52.7881 131.673 53.0552C131.949 53.2354 132.254 53.0661 132.256 52.7403C132.259 52.2616 132.21 51.606 131.961 51.1477C131.711 50.6794 131.309 50.2192 130.697 50.5478L130.706 50.5366Z" fill="#3F3F3F"/>
<path d="M106.384 58.921C106.397 59.6115 107.002 59.7315 107.53 59.7284C108.058 59.7153 108.655 59.4393 109.065 59.2065C109.35 59.0396 109.338 58.695 109.056 58.5461C108.632 58.3227 108.031 58.0699 107.504 58.083C106.976 58.0961 106.383 58.2393 106.395 58.9298L106.384 58.921Z" fill="#3F3F3F"/>
<path d="M129.624 44.2968C129.11 44.756 129.41 45.2997 129.772 45.6833C130.125 46.0781 130.727 46.3409 131.173 46.5005C131.481 46.6056 131.738 46.371 131.669 46.0537C131.561 45.5884 131.353 44.9623 131.001 44.5775C130.648 44.1827 130.148 43.8363 129.634 44.2955L129.624 44.2968Z" fill="#3F3F3F"/>
<path d="M343.604 100.568L253.183 86.312L252.876 86.1263C241.865 79.5668 235.402 66.7182 236.007 52.6179C236.61 38.6243 243.908 26.9071 255.531 21.2602C260.969 18.6222 265.866 18.9363 269.531 19.514C271.035 19.7512 272.513 20.0606 273.929 20.3754C275.362 20.6777 276.706 20.9659 278.077 21.1819C280.669 21.5906 282.707 21.6372 284.668 21.3053C287.926 20.781 291.17 18.8959 294.583 16.9003C298.451 14.6404 302.452 12.31 307.018 11.6255C310.68 11.058 313.937 11.0221 316.991 11.5036C320.045 11.985 322.905 13.016 325.514 14.5722C330.746 17.7019 332.702 22.2386 334.436 26.2516C335.6 28.9384 336.696 31.4772 338.648 33.525C339.959 34.8918 342.921 35.9541 345.796 36.9875C348.326 37.89 350.925 38.834 352.845 40.1137C360.4 45.1665 365.363 51.9326 367.615 60.2098C370.416 70.5272 369.88 85.6457 362.063 94.4571C357.531 99.5736 351.153 101.682 343.619 100.57L343.604 100.568ZM254.5 82.7036L344.176 96.8421C350.472 97.7737 355.54 96.1304 359.252 91.9533C365.841 84.5358 366.623 70.8603 363.994 61.1958C361.981 53.8263 357.529 47.782 350.765 43.2354C349.232 42.2151 346.849 41.351 344.536 40.5284C341.255 39.3549 337.86 38.1327 335.934 36.1194C333.509 33.5848 332.223 30.6041 330.981 27.7369C329.323 23.9191 327.771 20.301 323.587 17.7943C319.123 15.1214 314.115 14.3472 307.608 15.3362C303.761 15.9202 300.078 18.0718 296.499 20.1482C292.934 22.227 289.237 24.3763 285.288 25.0206C282.939 25.3982 280.471 25.3602 277.507 24.8929C276.032 24.6604 274.569 24.3534 273.153 24.0386C271.78 23.7457 270.346 23.4434 268.946 23.2226C265.639 22.7012 261.663 22.4559 257.182 24.6344C246.831 29.6728 240.316 40.2006 239.767 52.7833C239.219 65.3661 244.85 76.8015 254.485 82.7013L254.5 82.7036Z" fill="#4D4D4D"/>
<path d="M301.578 74.4041C301.578 74.4041 341.86 80.7397 343.898 98.7063C343.978 99.36 343.919 100.022 343.818 100.663L339.389 128.753C338.852 132.163 336.337 134.942 332.965 135.708C327.041 137.063 315.268 137.756 292.164 134.114C269.06 130.471 258.071 126.189 252.852 123.077C249.893 121.313 248.343 117.879 248.879 114.483L253.307 86.3928C253.408 85.7524 253.556 85.1041 253.834 84.5067C261.3 68.0386 301.578 74.4041 301.578 74.4041Z" fill="white"/>
<path d="M345.762 98.4966C345.241 93.8656 342.479 89.9805 338.61 86.7299C339.28 85.9655 339.938 85.1838 340.456 84.3191C341.453 82.6446 341.528 80.7178 341.689 78.82C341.012 80.2092 340.404 81.7465 339.245 82.8002C338.335 83.6336 337.175 84.2139 336.032 84.7817C334.972 84.0498 333.86 83.3555 332.699 82.684C333.906 81.0274 334.979 79.258 335.808 77.3891C336.542 75.7342 337.523 73.8739 337.675 72.0357C337.774 70.8301 337.53 69.5705 337.415 68.3618C337.156 69.6184 337.027 71.0176 336.447 72.1778C335.74 73.5623 334.523 74.7901 333.517 75.9441C332.01 77.6603 330.218 79.1484 328.308 80.4195C324.609 78.7067 320.738 77.3028 317.129 76.1842C318.22 73.7155 318.834 71.0801 319.229 68.3796C319.528 66.2897 319.965 64.0995 319.503 61.9965C319.221 60.6852 318.739 59.388 318.348 58.09C318.386 59.3018 318.481 60.5379 318.457 61.7553C318.427 63.6891 317.619 65.4239 316.886 67.1705C315.71 69.977 314.352 72.5868 312.279 74.7938C306.621 73.3064 302.378 72.6221 301.856 72.5399C301.514 72.4859 299.592 72.1829 296.704 71.9107C296.002 71.0369 295.307 70.1183 294.934 69.0978C294.385 67.6376 294.586 65.8832 294.569 64.339C293.949 65.9508 293.106 67.619 293.059 69.367C293.031 70.1258 293.157 70.8783 293.329 71.6229C293.027 71.6058 292.727 71.5737 292.424 71.5565C290.522 68.4175 287.989 65.408 287.03 61.8071C286.415 59.5121 286.195 57.0351 286.548 54.6944C286.835 52.8773 287.119 51.0752 287.224 49.2448C286.676 51.1732 285.916 52.992 285.236 54.8844C284.423 57.1373 284.199 59.6207 284.28 62.0146C284.378 65.266 285.607 68.3142 286.764 71.3358C282.35 71.2505 277.453 71.4247 272.716 72.128C271.345 69.3017 270.107 66.4047 269.129 63.4114C268.43 61.2559 267.576 59.1216 266.974 56.9355C266.531 55.2934 266.436 53.5689 266.29 51.8821C266.019 53.7015 265.715 55.5311 265.835 57.3817C265.965 59.7529 266.276 62.1374 266.53 64.4975C266.826 67.368 267.324 70.2094 267.949 73.0249C266.202 73.4517 264.506 73.9474 262.912 74.5662C261.752 73.4063 260.596 72.2167 259.857 70.8027C258.919 69.0063 258.82 66.8232 258.552 64.8425C258.202 67.0617 257.682 69.3914 258.183 71.6379C258.511 73.1397 259.205 74.5466 259.934 75.9284C256.452 77.7759 253.658 80.2966 252.094 83.7286C251.787 84.413 251.578 85.1585 251.43 86.0968L247.002 114.187C246.335 118.417 248.25 122.535 251.864 124.692C257.043 127.768 268.185 132.241 291.841 135.971C315.496 139.7 327.471 138.887 333.348 137.539C337.465 136.6 340.54 133.269 341.207 129.039L345.635 100.949C345.783 100.011 345.814 99.2373 345.733 98.4919L345.762 98.4966ZM337.512 128.457C337.087 131.153 335.135 133.272 332.537 133.87C326.994 135.133 315.532 135.89 292.457 132.252C269.383 128.614 258.707 124.382 253.824 121.46C251.536 120.091 250.331 117.474 250.756 114.779L255.184 86.6887C255.278 86.0929 255.393 85.6532 255.559 85.2824C262.347 70.3099 300.897 76.2047 301.284 76.2657C301.672 76.3268 340.165 82.579 342.017 98.9136C342.061 99.3172 342.035 99.7711 341.941 100.367L337.512 128.457Z" fill="#4D4D4D"/>
<path d="M243.797 54.533C243.922 44.8295 247.803 35.0312 256.219 29.5808C266.285 23.0625 277.556 30.9757 288.154 27.5638C293.156 25.9558 297.329 22.6298 302.007 20.3604C306.883 18 312.622 17.3325 317.858 18.784C323.184 20.2495 326.423 24.3014 328.502 29.2237C330.507 33.9359 332.448 38.6685 337.034 41.4369C342.164 44.5353 348.077 45.666 352.42 50.0752C356.01 53.7398 358.632 58.4119 359.609 63.4504C358.237 59.1739 355.664 55.2574 352.443 52.1548C348.522 48.3616 343.716 47.0849 338.785 45.1474C333.924 43.2514 330.453 40.1857 327.934 35.6366C325.641 31.4896 324.393 26.3321 320.125 23.6748C315.845 21.0004 310.063 21.2641 305.474 22.9676C300.625 24.7676 296.497 28.1006 291.739 30.0981C286.525 32.283 281.228 32.1806 275.753 31.1799C270.736 30.2669 265.45 28.7465 260.416 30.3646C250.334 33.5985 245.07 44.812 243.812 54.5353L243.797 54.533Z" fill="#4D4D4D"/>
<path d="M335.166 128.911C324.961 131.958 313.655 131.137 303.218 130.041C291.247 128.795 279.116 126.623 267.683 122.836C262.489 121.116 257.381 119.044 252.863 115.935C257.009 117.718 261.477 118.82 265.85 119.845C271.621 121.197 277.454 122.254 283.294 123.267C295.315 125.36 307.426 127.27 319.575 128.453C324.716 128.958 330.008 129.38 335.166 128.911Z" fill="#4D4D4D"/>
<path d="M252.304 113.283C262.425 108.544 273.836 108.114 284.857 108.707C297.47 109.367 310.293 112.183 321.891 117.247C327.289 119.61 332.184 122.549 336.497 126.572C327.032 120.851 316.276 117.904 305.55 115.541C293.539 112.9 281.219 111.446 268.925 111.476C263.289 111.488 257.802 112.012 252.317 113.3L252.304 113.283Z" fill="#4D4D4D"/>
<path d="M148.704 431.954C112.376 417.24 70.8132 434.885 56.0614 471.306C41.3096 507.727 58.8666 549.317 95.2066 564.036C131.547 578.755 173.098 561.106 187.85 524.685C202.601 488.264 185.032 446.668 148.704 431.954ZM181.853 501.248L174.476 498.26L185.226 471.72C186.817 475.585 188.082 479.598 188.957 483.707L181.848 501.26L181.853 501.248ZM189.797 488.561C190.529 493.822 190.651 499.201 190.121 504.596L184.263 502.224L189.797 488.561ZM85.4743 465.023L92.8508 468.011L80.1882 499.274L72.8117 496.286L85.4743 465.023ZM70.4011 495.31L63.0246 492.322L75.6872 461.059L83.0637 464.047L70.4011 495.31ZM103.604 469.554L96.2279 466.566L107.481 438.783L114.858 441.77L103.604 469.554ZM117.268 442.747L124.645 445.734L113.391 473.518L106.015 470.531L117.268 442.747ZM102.626 471.97L89.9632 503.233L82.5868 500.245L95.2493 468.982L102.626 471.97ZM88.9847 505.649L77.7313 533.433L70.3548 530.445L81.6082 502.661L88.9847 505.649ZM91.3953 506.625L98.7718 509.613L87.5183 537.397L80.1419 534.409L91.3953 506.625ZM92.3738 504.209L105.036 472.947L112.413 475.934L99.7503 507.197L92.3738 504.209ZM114.823 476.911L122.2 479.898L109.537 511.161L102.161 508.173L114.823 476.911ZM124.611 480.875L131.987 483.862L119.324 515.125L111.948 512.138L124.611 480.875ZM134.398 484.839L141.774 487.827L129.112 519.089L121.735 516.102L134.398 484.839ZM144.185 488.803L151.561 491.791L138.899 523.054L131.522 520.066L144.185 488.803ZM145.163 486.387L156.417 458.603L163.793 461.591L152.54 489.375L145.163 486.387ZM137.92 525.47L126.667 553.253L119.29 550.266L130.544 522.482L137.92 525.47ZM140.331 526.446L147.707 529.434L136.454 557.217L129.077 554.23L140.331 526.446ZM141.309 524.03L153.972 492.767L161.348 495.755L148.686 527.018L141.309 524.03ZM154.95 490.351L166.204 462.567L173.58 465.555L162.327 493.339L154.95 490.351ZM175.991 466.531L183.367 469.519L172.114 497.303L164.737 494.315L175.991 466.531ZM176.969 464.115L178.799 459.597C180.286 461.817 181.627 464.117 182.839 466.493L176.969 464.115ZM174.559 463.139L167.182 460.151L171.204 450.222C173.288 452.387 175.24 454.668 177.015 457.075L174.559 463.139ZM164.772 459.175L157.395 456.187L162.807 442.827C165.062 444.499 167.188 446.317 169.2 448.243L164.767 459.187L164.772 459.175ZM154.985 455.211L147.608 452.223L153.714 437.147C156.124 438.404 158.426 439.787 160.621 441.295L154.98 455.223L154.985 455.211ZM154.006 457.627L142.753 485.411L135.376 482.423L146.63 454.639L154.006 457.627ZM132.966 481.446L125.589 478.459L136.843 450.675L144.219 453.663L132.966 481.446ZM123.179 477.482L115.802 474.495L127.055 446.711L134.432 449.699L123.179 477.482ZM128.034 444.295L133.671 430.379C136.292 430.836 138.912 431.433 141.517 432.207L135.41 447.283L128.034 444.295ZM125.623 443.318L118.247 440.331L122.675 429.398C125.443 429.423 128.235 429.597 131.035 429.958L125.623 443.318ZM115.836 439.354L108.46 436.367L110.916 430.302C113.866 429.81 116.843 429.525 119.858 429.425L115.836 439.354ZM106.049 435.39L100.179 433.013C102.698 432.163 105.267 431.432 107.879 430.872L106.049 435.39ZM97.6942 434.818L105.071 437.806L93.8173 465.59L86.4408 462.602L97.6942 434.818ZM79.1976 501.685L67.9442 529.469L60.5677 526.481L71.8211 498.697L79.1976 501.685ZM66.9656 531.885L65.1357 536.403C63.6494 534.183 62.3084 531.883 61.0958 529.507L66.9656 531.885ZM69.3762 532.861L76.7527 535.849L72.7308 545.779C70.6475 543.613 68.6953 541.332 66.92 538.925L69.3762 532.861ZM79.1633 536.825L86.5398 539.813L81.1283 553.173C78.8735 551.501 76.7474 549.683 74.7353 547.758L79.1633 536.825ZM88.9504 540.789L96.3269 543.777L90.2207 558.853C87.8115 557.596 85.5092 556.213 83.3139 554.705L88.9504 540.789ZM89.9289 538.373L101.182 510.589L108.559 513.577L97.3054 541.361L89.9289 538.373ZM110.969 514.554L118.346 517.541L107.092 545.325L99.716 542.337L110.969 514.554ZM120.757 518.518L128.133 521.505L116.88 549.289L109.503 546.302L120.757 518.518ZM115.901 551.705L110.265 565.621C107.644 565.164 105.023 564.567 102.418 563.793L108.525 548.717L115.901 551.705ZM118.312 552.682L125.688 555.669L121.26 566.602C118.492 566.577 115.7 566.403 112.9 566.042L118.312 552.682ZM128.099 556.646L135.475 559.633L133.019 565.698C130.069 566.19 127.092 566.475 124.077 566.575L128.099 556.646ZM137.886 560.61L143.756 562.987C141.237 563.837 138.668 564.568 136.056 565.128L137.886 560.61ZM146.241 561.182L138.864 558.194L150.118 530.41L157.494 533.398L146.241 561.182ZM151.096 527.994L163.759 496.731L171.135 499.719L158.473 530.982L151.096 527.994ZM173.546 500.695L180.922 503.683L168.26 534.946L160.883 531.958L173.546 500.695ZM151.365 435.985L145.186 451.242L137.809 448.254L143.989 432.997C145.235 433.418 146.484 433.867 147.726 434.37C148.967 434.873 150.177 435.419 151.365 435.985ZM94.7917 435.091L84.0373 461.643L76.6609 458.655L83.7701 441.103C87.2581 438.761 90.9473 436.754 94.7917 435.091ZM74.2503 457.679L68.3925 455.306C71.767 451.062 75.5931 447.297 79.784 444.016L74.2503 457.679ZM66.7389 457.449L73.2717 460.095L60.6091 491.358L54.0764 488.712C54.8364 483.198 56.28 477.694 58.4671 472.294C60.6542 466.894 63.4478 461.937 66.7389 457.449ZM59.6306 493.774L54.0968 507.436C53.3652 502.176 53.2428 496.797 53.7728 491.401L59.6306 493.774ZM54.932 512.302L62.0412 494.75L69.4177 497.738L58.6633 524.289C57.0718 520.425 55.8072 516.411 54.932 512.302ZM92.536 560.03L98.7156 544.773L106.092 547.76L99.9125 563.017C98.6658 562.597 97.4168 562.147 96.1753 561.644C94.9339 561.141 93.7361 560.6 92.536 560.03ZM149.109 560.923L159.864 534.372L167.24 537.359L160.131 554.911C156.643 557.253 152.954 559.26 149.109 560.923ZM169.651 538.336L175.509 540.708C172.134 544.952 168.308 548.718 164.117 551.998L169.651 538.336ZM177.162 538.566L170.629 535.92L183.292 504.657L189.825 507.303C189.065 512.817 187.621 518.321 185.434 523.72C183.247 529.12 180.453 534.077 177.162 538.566Z" fill="#4D4D4D"/>
<path d="M219.299 516.007C219.452 513.861 218.153 511.873 216.165 511.067C214.176 510.262 211.786 510.897 210.42 512.537L200.585 508.553C205.337 473.439 186.044 438.177 151.802 424.308C117.559 410.438 79.1531 422.331 58.1297 450.854L48.2944 446.87C48.455 444.742 47.2771 442.662 45.192 441.817C43.1068 440.973 40.8864 441.536 39.5035 443.183C34.5869 449.052 29.8461 460.688 29.8461 460.688C29.8461 460.688 25.1535 472.342 24.6121 479.984C24.4587 482.129 25.7578 484.118 27.7465 484.923C29.7353 485.729 32.1251 485.094 33.4911 483.453L43.3264 487.437C38.5745 522.551 57.8788 557.818 92.1216 571.688C126.364 585.557 164.77 573.664 185.793 545.141L195.629 549.125C195.468 551.253 196.646 553.333 198.731 554.178C200.816 555.023 203.037 554.459 204.42 552.812C209.348 546.948 214.089 535.312 214.089 535.312C214.089 535.312 218.782 523.658 219.323 516.016L219.299 516.007ZM34.8581 480.182C34.9825 479.459 35.0369 478.736 35.0141 477.996C34.9186 475.426 35.3551 471.3 38.2761 464.088C41.1971 456.876 43.75 453.621 45.6119 451.83C46.1436 451.315 46.6078 450.757 47.0215 450.151L56.0613 453.813C53.0989 458.252 50.5211 463.057 48.4417 468.191C46.3623 473.325 44.8572 478.565 43.9076 483.819L34.8678 480.158L34.8581 480.182ZM94.0666 566.851C56.1839 551.507 37.8751 508.135 53.2531 470.168C68.6312 432.201 111.962 413.796 149.844 429.14C187.727 444.483 206.036 487.855 190.658 525.822C175.28 563.789 131.949 582.195 94.0666 566.851ZM198.309 544.136C197.777 544.652 197.313 545.209 196.899 545.815L187.86 542.153C190.822 537.714 193.4 532.909 195.479 527.775C197.559 522.641 199.064 517.401 200.013 512.147L209.053 515.808C208.929 516.531 208.874 517.254 208.897 517.995C208.993 520.565 208.556 524.691 205.635 531.902C202.714 539.114 200.161 542.369 198.299 544.16L198.309 544.136Z" fill="#4D4D4D"/>
<path d="M202.623 552.155C203.171 551.772 203.364 551.4 203.714 551.021C204.03 550.657 204.314 550.266 204.611 549.88C205.781 548.343 206.791 546.714 207.735 545.043C208.69 543.377 209.549 541.672 210.384 539.957C211.224 538.23 212.001 536.52 212.754 534.729C214.115 531.161 215.334 527.562 216.3 523.862C216.785 522.005 217.188 520.144 217.423 518.214C217.478 517.73 217.551 517.239 217.573 516.77L217.622 516.059C217.65 515.817 217.63 515.485 217.573 515.209C217.36 514.04 216.318 513.182 215.296 513.176C216.022 513.878 216.369 514.651 216.396 515.379C216.421 515.699 216.317 516.163 216.262 516.647C216.211 517.118 216.112 517.57 216.042 518.02C215.692 519.819 215.222 521.639 214.732 523.438C213.723 527.037 212.49 530.601 211.122 534.082C210.432 535.786 209.645 537.52 208.844 539.221C208.043 540.921 207.194 542.602 206.306 544.239C205.402 545.884 204.478 547.506 203.456 549.061C203.2 549.449 202.944 549.838 202.657 550.2C202.392 550.542 202.091 551.011 201.872 551.204C201.345 551.707 200.571 552.026 199.549 552.02C200.282 552.739 201.632 552.836 202.599 552.145L202.623 552.155Z" fill="white"/>
<path d="M26.3354 480.752C26.2083 480.096 26.3287 479.694 26.341 479.179C26.3676 478.698 26.4353 478.219 26.4909 477.735C26.7205 475.817 27.1286 473.944 27.614 472.087C28.0872 470.226 28.657 468.404 29.2508 466.591C29.8495 464.767 30.4817 462.998 31.1867 461.188C32.6926 457.678 34.3213 454.246 36.2031 450.916C37.1464 449.245 38.1523 447.628 39.327 446.079C39.6236 445.693 39.9131 445.29 40.2241 444.937L40.6835 444.392C40.8318 444.199 41.0769 443.975 41.3096 443.816C42.277 443.125 43.6219 443.234 44.3599 443.941C43.3502 443.94 42.5635 444.254 42.0367 444.758C41.7965 444.97 41.5481 445.375 41.2514 445.761C40.9596 446.135 40.716 446.529 40.4533 446.9C39.4526 448.436 38.5239 450.07 37.6243 451.703C35.8441 454.989 34.2493 458.407 32.8089 461.859C32.119 463.563 31.477 465.356 30.8689 467.134C30.2607 468.913 29.7008 470.711 29.1989 472.504C28.7041 474.315 28.2383 476.123 27.8908 477.951C27.804 478.408 27.7171 478.865 27.6713 479.324C27.6232 479.755 27.5141 480.301 27.5368 480.592C27.5645 481.32 27.8987 482.088 28.6367 482.795C27.61 482.801 26.5734 481.931 26.3595 480.762L26.3354 480.752Z" fill="white"/>
<path d="M305.439 514.397C303.345 516.427 302.777 517.089 302.007 519.033C299.492 525.42 301.465 528.26 302.947 528.295C303.462 528.307 304.431 528.723 305.556 529.277L302.495 535.236C301.739 534.978 301.014 534.851 300.061 534.5C298.001 533.751 296.515 534.358 294.128 536.498C291.741 538.638 291.44 542.763 291.023 544.383C290.613 546.007 291.627 546.984 292.838 548.071C293.307 548.491 294.038 549.225 294.879 550.064L279.858 579.308L279.853 579.444L279.639 584.812L279.583 586.112L280.607 585.309L284.845 582.008L284.953 581.925L299.225 554.139C301.337 555.501 306.022 552.633 307.768 550.995C309.56 549.315 310.945 542.682 312.095 540.444C313.009 538.664 309.997 538.959 307.471 538.102L310.773 531.671C311.097 531.772 311.385 531.83 311.624 531.839C313.537 531.909 314.187 534.435 317.793 532.081C321.937 529.376 322.136 523.34 322.55 521.36C322.963 519.38 322.27 518.111 319.098 517.574C318.791 517.522 318.464 517.46 318.108 517.391L321.418 510.948C324.22 512.713 327.697 514.654 330.91 508.194C333.443 503.104 332.855 501.677 332.365 499.363C332.112 498.157 330.792 496.713 329.187 495.823L331.999 490.347C332.741 491.013 333.361 491.584 333.786 491.868C335.366 492.9 338.365 491.823 340.113 489.673C343.827 485.108 345.047 478.48 341.617 476.938C340.917 476.619 340.215 476.193 339.51 475.725L349.707 455.873C349.856 455.582 350.008 455.27 350.177 454.941C357.22 441.228 358.272 436.959 358.287 435.63C365.652 427.797 367.637 418.521 367.947 416.822C370.195 415.222 372.067 412.213 373.099 410.314L373.106 410.318L375.945 404.79C376.889 402.952 376.586 400.987 376.292 399.083C375.989 397.118 375.671 395.088 376.698 393.088C378.245 390.076 381.584 389.289 382.909 389.089C383.167 393.713 377.47 398.107 377.411 398.158L376.702 398.698L377.462 399.154L381.057 401.311L381.386 401.512L381.703 401.292C381.879 401.17 385.996 398.329 387.299 394.189C388.515 390.346 386.837 386.933 382.703 384.809C379.149 382.984 374.332 385.27 371.95 389.908C369.916 393.868 370.399 395.306 371.131 397.484C371.207 397.718 371.291 397.965 371.379 398.223C371.941 399.986 370.866 402.141 370.857 402.16L368.617 406.52C368.587 406.578 368.349 407.01 368.011 407.701C367.138 409.494 365.717 412.864 365.729 415.666C364.528 416.908 358.139 423.921 356.068 434.474C355.006 435.257 352.142 438.595 345.095 452.314L334.743 472.47C333.688 471.92 332.677 471.621 331.724 471.84C328.779 472.512 323.478 478.723 323.02 480.885C322.562 483.046 321.51 487.299 324.799 486.592C325.605 486.419 326.456 486.587 327.305 486.95L322.495 496.315C321.924 496.364 321.549 495.919 319.73 495.319C316.619 494.283 315.43 494.422 314.796 497.292C314.162 500.162 308.892 504.962 311.098 506.666C312.554 507.781 314.262 508.218 316.121 508.724L312.414 515.942C310.791 515.434 309.542 514.931 309.38 514.612C309.009 513.875 307.527 512.38 305.439 514.413L305.439 514.397ZM379.004 385.648C377.629 385.896 376.334 386.608 375.27 387.554C374.19 388.499 373.337 389.683 372.746 390.977C372.138 392.254 371.78 393.635 371.937 394.963C372.004 395.625 372.179 396.269 372.353 396.913C372.525 397.564 372.686 398.201 372.767 398.854C372.817 399.564 372.636 400.172 372.457 400.757C372.273 401.339 372.053 401.878 371.824 402.388C371.371 403.411 370.895 404.307 370.448 405.097C370.005 405.88 369.602 406.554 369.262 407.105C368.922 407.655 368.639 408.08 368.451 408.367C368.257 408.65 368.151 408.808 368.151 408.808C368.151 408.808 368.528 408.17 369.156 407.042C369.47 406.478 369.841 405.788 370.245 404.985C370.643 404.178 371.088 403.265 371.504 402.248C371.707 401.741 371.911 401.202 372.07 400.639C372.225 400.083 372.368 399.472 372.309 398.904C372.134 397.689 371.574 396.448 371.405 395.016C371.322 394.305 371.356 393.556 371.513 392.838C371.663 392.116 371.917 391.415 372.233 390.738C372.831 389.382 373.73 388.108 374.866 387.102C376.015 386.102 377.402 385.355 378.906 385.093C380.397 384.823 381.986 385.126 383.18 385.992C383.788 386.443 384.199 387.118 384.356 387.811C384.521 388.507 384.5 389.197 384.396 389.844C384.181 391.136 383.688 392.269 383.152 393.249C382.613 394.235 382.001 395.062 381.42 395.75C380.835 396.444 380.268 396.992 379.78 397.418C379.292 397.844 378.871 398.141 378.59 398.339C378.302 398.534 378.142 398.623 378.142 398.623C378.142 398.623 378.293 398.521 378.574 398.307C378.845 398.096 379.238 397.776 379.703 397.33C380.631 396.445 381.846 395.031 382.856 393.08C383.353 392.113 383.8 390.989 383.962 389.768C384.04 389.156 384.041 388.521 383.882 387.926C383.726 387.324 383.388 386.776 382.87 386.404C382.343 386.035 381.713 385.768 381.047 385.638C380.38 385.508 379.686 385.51 379 385.639L379.004 385.648ZM320.733 497.016C320.733 497.016 320.678 497.012 320.564 497.011C320.451 497.009 320.289 496.991 320.088 496.954C319.888 496.916 319.635 496.868 319.36 496.8C319.086 496.732 318.778 496.664 318.455 496.612C318.296 496.587 318.127 496.582 317.985 496.59C317.91 496.593 317.845 496.608 317.786 496.627C317.718 496.649 317.705 496.659 317.601 496.719C317.284 496.907 316.99 497.147 316.704 497.433C316.137 498.013 315.658 498.787 315.196 499.576C314.958 499.976 314.74 500.385 314.479 500.781C314.222 501.171 313.935 501.57 313.569 501.887C313.258 502.143 313.018 502.452 312.807 502.767C312.602 503.086 312.421 503.408 312.287 503.715C312.012 504.331 311.879 504.891 311.907 505.28C311.925 505.469 311.978 505.618 312.062 505.694C312.139 505.766 312.194 505.786 312.194 505.786C312.194 505.786 312.132 505.779 312.039 505.723C311.939 505.663 311.827 505.516 311.771 505.308C311.715 505.1 311.688 504.834 311.714 504.545C311.737 504.247 311.789 503.923 311.893 503.578C311.998 503.232 312.131 502.86 312.336 502.493C312.532 502.128 312.782 501.736 313.12 501.412C313.408 501.136 313.636 500.788 313.864 500.408C314.082 500.015 314.313 499.612 314.535 499.212C314.77 498.803 315.004 498.394 315.271 498.001C315.545 497.611 315.841 497.242 316.172 496.914C316.503 496.587 316.875 496.306 317.264 496.106C317.306 496.087 317.345 496.058 317.423 496.033C317.488 496.001 317.553 495.986 317.618 495.97C317.748 495.939 317.875 495.931 317.985 495.939C318.219 495.944 318.413 495.995 318.594 496.055C318.956 496.16 319.246 496.309 319.504 496.425C319.755 496.554 319.975 496.667 320.162 496.763C320.523 496.949 320.742 497.045 320.742 497.045L320.733 497.016ZM321.695 498.015C321.789 497.99 321.835 497.981 321.835 497.981C321.835 497.981 321.789 498.006 321.704 498.044C321.662 498.063 321.606 498.092 321.545 498.117C321.476 498.139 321.405 498.168 321.317 498.196C320.972 498.312 320.452 498.388 319.839 498.374C319.538 498.374 319.201 498.364 318.879 498.387C318.555 498.416 318.227 498.484 318.013 498.708C317.909 498.801 317.783 498.981 317.662 499.123C317.544 499.274 317.422 499.431 317.3 499.589C317.057 499.904 316.804 500.223 316.56 500.538C316.307 500.856 316.057 501.168 315.807 501.48C315.558 501.792 315.298 502.09 315.052 502.379C314.805 502.669 314.553 502.938 314.307 503.195C314.245 503.253 314.189 503.314 314.127 503.372C314.071 503.433 314.005 503.497 313.969 503.551C313.89 503.658 313.814 503.79 313.757 503.916C313.534 504.445 313.516 504.957 313.515 505.307C313.515 505.658 313.542 505.859 313.542 505.859C313.542 505.859 313.469 505.667 313.408 505.309C313.378 505.131 313.351 504.913 313.351 504.66C313.35 504.407 313.376 504.119 313.473 503.802C313.52 503.647 313.584 503.492 313.693 503.328C313.739 503.238 313.795 503.193 313.847 503.122C313.906 503.055 313.965 502.987 314.024 502.92C314.248 502.659 314.468 502.373 314.702 502.077C315.165 501.476 315.662 500.843 316.158 500.209C316.412 499.891 316.661 499.579 316.918 499.27C317.046 499.116 317.168 498.959 317.299 498.814C317.437 498.657 317.529 498.525 317.716 498.368C317.791 498.284 317.895 498.24 317.993 498.176C318.091 498.129 318.195 498.084 318.296 498.063C318.501 498.013 318.699 497.992 318.877 497.994C319.244 497.995 319.571 498.041 319.872 498.073C320.471 498.145 320.967 498.147 321.311 498.095C321.399 498.083 321.474 498.065 321.542 498.059C321.607 498.043 321.666 498.025 321.711 498.015L321.695 498.015ZM325.986 481.585C326.035 481.488 326.095 481.388 326.157 481.282C326.227 481.179 326.296 481.06 326.385 480.934C326.556 480.696 326.78 480.436 327.064 480.199C327.349 479.962 327.672 479.745 327.986 479.499C328.3 479.252 328.602 478.967 328.884 478.639C329.032 478.479 329.16 478.308 329.301 478.128C329.436 477.945 329.568 477.752 329.713 477.565C329.996 477.172 330.328 476.797 330.733 476.483C331.139 476.17 331.698 475.985 332.217 476.006C332.732 476.018 333.178 476.166 333.59 476.19C333.687 476.191 333.797 476.199 333.891 476.19C333.986 476.181 334.073 476.185 334.177 476.157C334.278 476.136 334.379 476.114 334.479 476.092C334.59 476.068 334.7 476.043 334.811 476.034C335.246 475.981 335.654 476.027 336.013 476.106C336.731 476.263 337.273 476.541 337.65 476.727C338.021 476.925 338.217 477.067 338.217 477.067C338.217 477.067 338.005 476.957 337.614 476.814C337.226 476.664 336.657 476.486 335.971 476.394C335.628 476.348 335.255 476.344 334.878 476.411C334.784 476.42 334.693 476.455 334.598 476.48C334.494 476.508 334.39 476.536 334.286 476.564C334.195 476.598 334.059 476.61 333.935 476.628C333.812 476.646 333.695 476.635 333.572 476.637C333.092 476.619 332.64 476.501 332.218 476.496C331.797 476.491 331.403 476.623 331.053 476.892C330.706 477.154 330.395 477.491 330.125 477.858C329.98 478.045 329.839 478.225 329.694 478.411C329.546 478.588 329.392 478.778 329.228 478.938C328.916 479.275 328.566 479.56 328.223 479.799C327.88 480.039 327.541 480.223 327.253 480.418C326.972 480.616 326.733 480.828 326.536 481.036C326.441 481.142 326.356 481.245 326.274 481.341C326.198 481.441 326.132 481.538 326.066 481.618C325.941 481.782 325.859 481.927 325.79 482.014C325.727 482.104 325.691 482.159 325.691 482.159C325.691 482.159 325.717 482.107 325.764 482.001C325.813 481.904 325.87 481.746 325.979 481.565L325.986 481.585ZM335.105 474.604C335.523 474.917 335.738 475.133 335.738 475.133C335.738 475.133 335.484 474.978 335.019 474.74C334.562 474.504 333.891 474.176 333.057 473.943C332.643 473.829 332.18 473.746 331.716 473.76C331.252 473.775 330.794 473.922 330.44 474.23C330.345 474.303 330.283 474.393 330.191 474.493C330.102 474.602 330.007 474.708 329.915 474.824C329.727 475.046 329.521 475.274 329.314 475.485C328.904 475.919 328.455 476.332 328.007 476.729C327.558 477.127 327.119 477.505 326.739 477.912C326.358 478.32 326.003 478.757 325.7 479.205C325.084 480.103 324.581 481.002 324.206 481.796C323.847 482.59 323.622 483.297 323.617 483.8C323.611 484.05 323.654 484.251 323.711 484.378C323.768 484.505 323.823 484.558 323.813 484.561C323.813 484.561 323.755 484.515 323.669 484.397C323.589 484.283 323.497 484.081 323.455 483.814C323.373 483.275 323.495 482.498 323.783 481.636C323.924 481.202 324.111 480.744 324.336 480.273C324.562 479.802 324.814 479.312 325.117 478.832C325.424 478.346 325.76 477.85 326.177 477.404C326.587 476.954 327.042 476.544 327.485 476.143C327.93 475.752 328.365 475.365 328.769 474.961C328.965 474.752 329.165 474.553 329.359 474.351C329.454 474.245 329.549 474.139 329.644 474.033C329.746 473.93 329.864 473.795 329.992 473.706C330.244 473.501 330.537 473.358 330.833 473.274C331.132 473.199 331.424 473.17 331.703 473.183C332.264 473.202 332.755 473.356 333.184 473.52C334.043 473.863 334.668 474.298 335.086 474.611L335.105 474.604ZM369.016 414.502C368.511 415.074 367.98 415.632 367.39 416.161C367.099 416.411 366.811 416.654 366.513 416.901C366.231 417.147 365.95 417.394 365.684 417.657C365.144 418.17 364.635 418.699 364.172 419.236C363.24 420.306 362.469 421.394 361.82 422.34C361.177 423.29 360.653 424.088 360.29 424.652C359.921 425.212 359.707 425.534 359.707 425.534C359.707 425.534 359.882 425.192 360.187 424.599C360.505 424.012 360.945 423.154 361.53 422.158C361.824 421.665 362.151 421.124 362.527 420.583C362.899 420.033 363.307 419.46 363.771 418.907C364.237 418.348 364.733 417.78 365.28 417.254C365.549 416.984 365.837 416.725 366.122 416.472C366.413 416.222 366.705 415.972 366.996 415.722C367.549 415.232 368.084 414.683 368.58 414.131C369.072 413.569 369.545 413.013 369.982 412.447C370.861 411.324 371.628 410.227 372.267 409.284C372.904 408.331 373.428 407.532 373.778 406.962C374.128 406.392 374.329 406.063 374.329 406.063C374.329 406.063 374.179 406.418 373.881 407.015C373.573 407.615 373.148 408.473 372.564 409.469C371.985 410.468 371.263 411.604 370.41 412.772C369.982 413.351 369.522 413.946 369.016 414.518L369.016 414.502ZM359.393 433.239C358.887 433.81 358.356 434.369 357.766 434.898C357.475 435.147 357.187 435.391 356.889 435.637C356.607 435.884 356.326 436.131 356.06 436.394C355.52 436.907 355.011 437.436 354.548 437.973C353.616 439.043 352.845 440.13 352.196 441.077C351.553 442.026 351.029 442.825 350.666 443.388C350.297 443.949 350.083 444.271 350.083 444.271C350.083 444.271 350.258 443.929 350.563 443.335C350.881 442.749 351.321 441.891 351.906 440.895C352.2 440.402 352.527 439.861 352.903 439.32C353.275 438.77 353.683 438.197 354.147 437.644C354.613 437.085 355.109 436.516 355.656 435.99C355.925 435.721 356.213 435.461 356.498 435.208C356.789 434.958 357.081 434.709 357.372 434.459C357.925 433.969 358.46 433.42 358.956 432.868C359.448 432.305 359.921 431.75 360.359 431.184C361.237 430.061 362.004 428.964 362.643 428.021C363.28 427.068 363.804 426.269 364.154 425.699C364.504 425.129 364.705 424.8 364.705 424.8C364.705 424.8 364.555 425.155 364.257 425.752C363.949 426.352 363.524 427.21 362.94 428.205C362.361 429.204 361.639 430.341 360.786 431.509C360.358 432.088 359.898 432.683 359.392 433.255L359.393 433.239ZM337.145 474.03C336.688 473.697 336.224 473.378 335.777 473.091L344.37 456.36C348.273 448.762 347.236 450.797 349.463 447.922C351.449 445.356 353.202 442.767 353.202 442.767L337.145 474.03ZM329.744 488.439L326.384 494.979C325.755 494.965 325.145 495.076 324.593 495.371C324.469 495.438 324.349 495.498 324.235 495.562L328.376 487.5C328.843 487.78 329.3 488.097 329.744 488.439ZM315.217 516.721C314.67 516.579 314.117 516.434 313.594 516.279L317.311 509.042C317.828 509.194 318.358 509.368 318.894 509.562L315.22 516.715L315.217 516.721ZM295.777 550.966C296.181 551.369 296.598 551.779 297.009 552.169L280.782 583.761L281.545 578.674L295.777 550.966ZM294.948 538.9C295.064 538.707 295.209 538.536 295.372 538.392C295.697 538.094 296.069 537.878 296.45 537.691C297.222 537.329 298.019 537.095 298.78 536.931C299.203 536.838 299.62 536.898 299.972 537.005C300.328 537.107 300.641 537.259 300.909 537.405C301.46 537.696 301.888 537.957 302.224 538.081C302.386 538.147 302.521 538.184 302.618 538.202C302.716 538.219 302.761 538.226 302.761 538.226C302.761 538.226 302.712 538.225 302.615 538.224C302.566 538.224 302.511 538.22 302.433 538.212C302.362 538.208 302.281 538.191 302.194 538.171C301.832 538.099 301.351 537.893 300.789 537.669C300.505 537.556 300.201 537.449 299.874 537.371C299.551 537.303 299.211 537.283 298.882 537.367C298.515 537.463 298.144 537.582 297.77 537.708C297.395 537.834 297.027 537.979 296.669 538.153C296.313 538.321 295.974 538.522 295.702 538.766C295.63 538.826 295.565 538.891 295.515 538.955C295.45 539.019 295.407 539.087 295.354 539.157C295.302 539.228 295.281 539.299 295.232 539.38C295.185 539.47 295.159 539.554 295.106 539.641C294.927 540.006 294.735 540.315 294.554 540.621C294.375 540.921 294.197 541.204 294.039 541.465C293.728 541.99 293.496 542.442 293.369 542.768C293.309 542.933 293.256 543.068 293.242 543.159C293.218 543.253 293.208 543.304 293.208 543.304C293.208 543.304 293.208 543.256 293.219 543.155C293.22 543.058 293.244 542.916 293.279 542.738C293.32 542.563 293.374 542.346 293.464 542.107C293.548 541.865 293.658 541.604 293.784 541.326C293.913 541.042 294.059 540.742 294.218 540.433C294.377 540.123 294.55 539.788 294.696 539.455C294.736 539.378 294.769 539.281 294.806 539.194C294.849 539.11 294.896 538.987 294.958 538.897L294.948 538.9ZM302.529 536.248C303.232 536.691 303.703 537.185 304.017 537.526C304.174 537.696 304.302 537.827 304.386 537.919C304.479 538.008 304.52 538.053 304.52 538.053C304.52 538.053 304.285 537.924 303.909 537.641C303.535 537.368 303.005 536.973 302.311 536.642C301.963 536.479 301.578 536.355 301.157 536.285C300.947 536.251 300.736 536.232 300.513 536.24C300.276 536.24 300.045 536.26 299.77 536.241C299.242 536.223 298.717 536.149 298.231 536.095C297.736 536.044 297.304 536.091 296.887 536.301C296.47 536.494 296.064 536.808 295.701 537.134C295.311 537.497 294.963 537.824 294.638 538.187C294.317 538.543 294.024 538.906 293.787 539.273C293.549 539.641 293.344 540.008 293.175 540.353C293.012 540.702 292.866 541.034 292.753 541.334C292.639 541.635 292.545 541.896 292.472 542.119C292.318 542.562 292.237 542.814 292.237 542.814C292.237 542.814 292.248 542.746 292.255 542.62C292.27 542.497 292.285 542.309 292.32 542.082C292.386 541.619 292.497 540.959 292.759 540.18C292.893 539.792 293.062 539.382 293.291 538.97C293.512 538.554 293.793 538.135 294.118 537.74C294.44 537.351 294.808 536.937 295.181 536.59C295.584 536.219 296.016 535.854 296.557 535.594C297.098 535.334 297.757 535.273 298.298 535.347C298.845 535.408 299.334 535.52 299.797 535.554C300.017 535.586 300.277 535.572 300.516 535.598C300.772 535.607 301.025 535.655 301.264 535.713C301.743 535.828 302.156 536.024 302.507 536.245L302.529 536.248ZM306.643 529.81C307.127 530.059 307.627 530.308 308.117 530.543L305.003 536.606C304.479 536.214 304.025 535.924 303.615 535.706L306.643 529.81ZM303.311 522.54C303.525 521.965 303.837 521.326 304.12 520.632C304.266 520.283 304.387 519.938 304.505 519.55C304.625 519.172 304.747 518.761 304.994 518.375C305.116 518.185 305.287 517.995 305.512 517.874C305.73 517.75 305.958 517.704 306.14 517.651C306.329 517.601 306.491 517.554 306.645 517.478C306.713 517.44 306.775 517.415 306.86 517.344C306.896 517.322 306.942 517.28 306.965 517.267L307.112 517.172C307.206 517.098 307.33 517.08 307.434 517.036C307.544 517.027 307.665 516.999 307.768 517.02C307.878 517.028 307.982 517.048 308.072 517.078C308.173 517.105 308.26 517.142 308.34 517.175C308.679 517.325 308.959 517.51 309.214 517.665C309.472 517.83 309.7 517.972 309.916 518.091C310.129 518.2 310.322 518.299 310.481 518.356C310.642 518.407 310.778 518.46 310.872 518.467C310.966 518.491 311.011 518.498 311.011 518.498C311.011 518.498 310.962 518.498 310.865 518.496C310.774 518.499 310.632 518.491 310.454 518.456C310.276 518.422 310.062 518.361 309.83 518.274C309.601 518.181 309.333 518.068 309.068 517.932C308.797 517.793 308.504 517.651 308.2 517.543C307.893 517.443 307.57 517.391 307.344 517.56L307.256 517.621L307.135 517.714C307.073 517.771 306.958 517.835 306.86 517.899C306.665 518.01 306.45 518.079 306.255 518.126C305.849 518.218 305.604 518.329 305.416 518.648C305.215 518.944 305.094 519.306 304.97 519.691C304.852 520.063 304.686 520.45 304.523 520.798C304.198 521.495 303.835 522.108 303.569 522.64C303.434 522.904 303.321 523.156 303.247 523.379C303.18 523.605 303.125 523.806 303.143 523.978C303.146 524.02 303.149 524.062 303.148 524.094C303.161 524.134 303.17 524.163 303.176 524.199C303.186 524.228 303.192 524.264 303.205 524.286C303.217 524.309 303.23 524.332 303.243 524.355C303.29 524.436 303.316 524.482 303.316 524.482C303.316 524.482 303.281 524.44 303.217 524.374C303.2 524.358 303.178 524.338 303.165 524.315C303.153 524.292 303.137 524.26 303.121 524.227C303.105 524.195 303.089 524.162 303.07 524.12C303.058 524.081 303.055 524.038 303.039 523.99C302.952 523.619 303.078 523.088 303.298 522.517L303.311 522.54ZM304.118 517.207C304.26 516.963 304.415 516.724 304.58 516.499C304.922 516.055 305.319 515.648 305.773 515.302C305.999 515.133 306.25 514.977 306.54 514.873C306.69 514.819 306.849 514.779 307.037 514.778C307.225 514.777 307.468 514.844 307.628 515.008C307.673 515.047 307.708 515.106 307.746 515.158L307.791 515.246L307.807 515.279L307.813 515.282L307.819 515.302C307.823 515.312 307.839 515.328 307.848 515.341C307.893 515.397 307.964 515.465 308.05 515.518C308.218 515.637 308.418 515.74 308.615 515.832C309.015 516.005 309.418 516.156 309.79 516.273C310.546 516.515 311.186 516.697 311.632 516.828C311.859 516.896 312.033 516.953 312.153 516.99C312.272 517.026 312.334 517.05 312.334 517.05C312.334 517.05 312.266 517.039 312.143 517.025C312.016 517.017 311.832 516.996 311.605 516.977C311.138 516.933 310.474 516.861 309.675 516.703C309.277 516.621 308.844 516.529 308.398 516.365C308.172 516.282 307.939 516.195 307.701 516.056C307.578 515.993 307.463 515.901 307.341 515.773C307.309 515.741 307.283 515.711 307.258 515.665L307.216 515.603L307.2 515.571L307.187 515.564L307.188 515.548C307.181 515.545 307.207 515.59 307.194 515.567L307.146 515.486C307.127 515.476 307.107 515.466 307.043 515.465C306.984 515.468 306.89 515.493 306.795 515.534C306.606 515.616 306.41 515.744 306.221 515.891C305.841 516.185 305.494 516.561 305.191 516.96C305.04 517.159 304.895 517.362 304.769 517.574C304.64 517.794 304.551 518 304.431 518.249C304.218 518.726 303.99 519.187 303.78 519.642C303.359 520.543 302.983 521.385 302.693 522.124C302.406 522.857 302.205 523.488 302.145 523.938C302.116 524.168 302.114 524.346 302.136 524.463C302.154 524.586 302.189 524.645 302.179 524.648C302.179 524.648 302.141 524.596 302.097 524.475C302.053 524.355 301.999 524.173 301.992 523.933C301.962 523.453 302.06 522.769 302.266 521.987C302.466 521.201 302.778 520.309 303.151 519.376C303.341 518.911 303.531 518.43 303.744 517.952C303.847 517.72 303.963 517.446 304.105 517.201L304.118 517.207Z" fill="#3F3F3F"/>
</svg>
